<svg id="Layer_1" data-name="Layer 1" xmlns="http://www.w3.org/2000/svg" xmlns:xlink="http://www.w3.org/1999/xlink" viewBox="0 0 820.55 617.91"><defs><style>.cls-1{fill:none;}.cls-2{fill:#ccc;}.cls-3{fill:#303030;}.cls-4{fill:#e6e6e6;}.cls-27,.cls-5{fill:#fff;}.cls-6{fill:#b3b3b3;}.cls-15,.cls-7,.cls-8,.cls-9{fill:#30309c;}.cls-7{opacity:0.3;}.cls-9{opacity:0.6;}.cls-10{clip-path:url(#clip-path);}.cls-11{fill:#8096a7;}.cls-12{fill:#d48458;}.cls-13{fill:#f29663;}.cls-14{fill:#b7724a;}.cls-15{opacity:0.7;}.cls-16{clip-path:url(#clip-path-2);}.cls-17{fill:#ffaa4b;}.cls-18,.cls-19{opacity:0.16;}.cls-20{fill:#999;}.cls-21{fill:#4c4c4c;}.cls-22{fill:gray;}.cls-23{fill:#c3e2f8;}.cls-24{fill:#daeefb;}.cls-25{fill:#006edb;}.cls-26{fill:#e7f2fb;}.cls-27{opacity:0.72;}</style><clipPath id="clip-path" transform="translate(-14.2 -36.02)"><rect class="cls-1" x="550.49" y="73.76" width="90.56" height="112.36" rx="5"/></clipPath><clipPath id="clip-path-2" transform="translate(-14.2 -36.02)"><rect class="cls-1" x="283" y="410.84" width="87.35" height="90.56" rx="5"/></clipPath></defs><ellipse class="cls-2" cx="84.35" cy="557.99" rx="84.35" ry="20.02"/><ellipse class="cls-2" cx="281.69" cy="581.96" rx="143.88" ry="19.89"/><ellipse class="cls-2" cx="590.81" cy="569.49" rx="101.47" ry="48.42"/><ellipse class="cls-2" cx="755.58" cy="479.29" rx="64.97" ry="19.42"/><path class="cls-2" d="M373.56,479.55c0,3.73-40.58,6.76-90.64,6.76s-90.65-3-90.65-6.76,40.58-6.76,90.65-6.76S373.56,475.82,373.56,479.55Z" transform="translate(-14.2 -36.02)"/><path class="cls-2" d="M721.73,479.31c0,2-39.89,3.7-89.09,3.7s-89.1-1.66-89.1-3.7,39.89-3.7,89.1-3.7S721.73,477.27,721.73,479.31Z" transform="translate(-14.2 -36.02)"/><path class="cls-3" d="M767.88,492.05a30.17,30.17,0,0,1,1.4,10.53c-.47,4.92,0,6.33-1.4,6.33s-8,.23-8.67,0-1.87-4.69-3-3.52.23,3.26-1.41,3.62-19,2-23.41,0-3.75-2.91,1.17-4.55,22.71-7.26,26.69-12.41S767.88,492.05,767.88,492.05Z" transform="translate(-14.2 -36.02)"/><path class="cls-3" d="M773.66,383.63s-12.18,29-14.52,34.18,6.09,7,8.9,34.19,1.87,44.5,1.87,44.5-13.58,2.81-14.52-1.88c0,0-1.87-22.95-8.43-36.06s-11.24-23.88-10.3-36.53,13.11-71.66,13.11-71.66l14.05-28.57,15.46,2.35Z" transform="translate(-14.2 -36.02)"/><rect class="cls-4" x="504.85" width="235.2" height="416.32" rx="10"/><rect class="cls-5" x="518.68" y="15.13" width="208.1" height="386.07" rx="10"/><rect class="cls-6" x="641.94" y="116.58" width="59.55" height="5.27"/><rect class="cls-6" x="641.94" y="129.16" width="49.46" height="5.27"/><rect class="cls-2" x="536.29" y="216.04" width="164.79" height="5.27"/><rect class="cls-2" x="536.29" y="241.2" width="171.25" height="5.27"/><rect class="cls-2" x="536.29" y="253.78" width="155.11" height="5.27"/><rect class="cls-2" x="536.29" y="228.62" width="171.25" height="5.27"/><rect class="cls-2" x="536.29" y="306.61" width="164.79" height="5.27"/><rect class="cls-2" x="536.29" y="331.76" width="171.25" height="5.27"/><rect class="cls-2" x="536.29" y="344.34" width="155.11" height="5.27"/><rect class="cls-2" x="536.29" y="356.92" width="121.87" height="5.27"/><rect class="cls-2" x="536.29" y="369.5" width="133.34" height="5.27"/><rect class="cls-2" x="536.29" y="319.19" width="171.25" height="5.27"/><rect class="cls-7" x="536.29" y="37.73" width="90.56" height="112.36" rx="5"/><rect class="cls-8" x="641.94" y="73.81" width="65.59" height="22.64"/><rect class="cls-9" x="537.86" y="178.84" width="134.58" height="9.64"/><rect class="cls-9" x="537.86" y="196.45" width="149.19" height="9.64"/><rect class="cls-9" x="537.86" y="287.02" width="134.58" height="9.64"/><g class="cls-10"><path class="cls-11" d="M555.31,178.11c0-15.1,18.21-27.33,40.67-27.33s40.66,12.23,40.66,27.33v15.1H555.31Z" transform="translate(-14.2 -36.02)"/></g><ellipse class="cls-5" cx="581.43" cy="121.29" rx="13.43" ry="4.48"/><path class="cls-12" d="M604.91,156.42s-2.12,2.82-8.58,2.82-8.58-2.82-8.58-2.82v-10h17.16Z" transform="translate(-14.2 -36.02)"/><polygon class="cls-13" points="566.03 65.98 564.86 85.49 575.43 94.89 589.54 94.89 598 84.31 596.59 64.57 585.07 59.87 571.91 61.28 566.03 65.98"/><path class="cls-13" d="M580.93,111.17s-4.23-7-8-7,.47,7.76,4,11l3.52,3.29Z" transform="translate(-14.2 -36.02)"/><path class="cls-13" d="M611.15,110.81s4.82-6.66,8.57-6.33-1.14,7.68-4.93,10.66l-3.8,3Z" transform="translate(-14.2 -36.02)"/><path class="cls-3" d="M579.05,113.4s-3.82,13.76-2.85,17.52,1,16.69,19.42,17.39,18.93-11.28,19.16-17.39-2.58-20.22-2.58-20.22l-2.35.11s3.76,16.11-14.23,16.11-14.24-13.52-14.69-17c-.26-2-1.88-1.44-1.88-1.44Z" transform="translate(-14.2 -36.02)"/><path class="cls-3" d="M579.05,108.51s.47-8.15-.94-10.27-.94-7.29,3.76-10.34,5.41-2.59,7.76-2.35,12.46,1.64,14.81,1.41,8-2.12,9.4,8.23-1.41,12.93-1.64,15.51l-2.35.11s-1.65-6.46-4.23-7.63-5.18-2.12-8.47-1.41-4.93,2.11-9.64,1.88-4.93-1.65-5.64-.24-.94,7.76-.94,7.76Z" transform="translate(-14.2 -36.02)"/><path class="cls-14" d="M593.86,109.76l-.47,8.46s1.18,2.59,4.47.24l-1.18-8.93S595,107.41,593.86,109.76Z" transform="translate(-14.2 -36.02)"/><rect class="cls-4" x="121.23" y="32.7" width="314.44" height="349.66" rx="10"/><rect class="cls-5" x="131.34" y="43.94" width="294.23" height="327.18" rx="10"/><rect class="cls-7" x="151.41" y="66.24" width="119.07" height="119.07" rx="5"/><path class="cls-11" d="M176.3,221.34c0-11.53,21.82-33.54,48.74-33.54s48.74,22.09,48.74,33.41Z" transform="translate(-14.2 -36.02)"/><polygon class="cls-5" points="201.72 152.19 196.06 166.44 210.95 156.38 201.72 152.19"/><polygon class="cls-5" points="221.01 152.19 210.95 156.38 224.78 166.65 221.01 152.19"/><path class="cls-3" d="M261.2,166.83c-.42-5.45-8-25.15-15.51-37.73-6.47-10.78-17.84-9.86-21-9.37-3.13-.49-14.5-1.41-21,9.37-7.54,12.58-15.09,32.28-15.51,37.73s.43,18.76,36.48,11C260.78,185.59,261.62,172.26,261.2,166.83Z" transform="translate(-14.2 -36.02)"/><polygon class="cls-12" points="205.5 136.26 201.72 152.19 210.95 156.38 221.01 152.19 216.4 135.42 205.5 136.26"/><path class="cls-13" d="M208.38,146.29s-5,28.09,16.35,28.51,17.6-27.25,17.6-27.25L239,137.48l-9.64-10.06-8.81.84Z" transform="translate(-14.2 -36.02)"/><path class="cls-3" d="M208.38,146.29s13.83,2.93,16.77-12.16c0,0,1.25,13.42,16.77,11.32l1.67-5.45-8.38-12.16-7.13-4.19-13,.84-7.54,18.86Z" transform="translate(-14.2 -36.02)"/><path class="cls-14" d="M223.89,150.06l-1.47,10.27s2.73,2.1,5,0L226,149.64S224.52,148.39,223.89,150.06Z" transform="translate(-14.2 -36.02)"/><rect class="cls-8" x="291.45" y="103.14" width="107.33" height="22.64"/><rect class="cls-6" x="291.45" y="145.9" width="85.65" height="5.27"/><rect class="cls-6" x="291.45" y="171.06" width="54.82" height="5.27"/><rect class="cls-6" x="291.45" y="158.48" width="107.33" height="5.27"/><rect class="cls-15" x="151.41" y="226.82" width="134.58" height="9.64"/><rect class="cls-2" x="149.84" y="253.95" width="247.21" height="5.27"/><rect class="cls-2" x="149.84" y="279.11" width="231.35" height="5.27"/><rect class="cls-2" x="149.84" y="266.53" width="256.9" height="5.27"/><rect class="cls-2" x="149.84" y="326.91" width="188.73" height="5.27"/><rect class="cls-2" x="149.84" y="339.49" width="170.63" height="5.27"/><rect class="cls-15" x="151.41" y="299.77" width="134.58" height="9.64"/><rect class="cls-4" x="236.94" y="344.63" width="339.6" height="189.92" rx="10"/><rect class="cls-5" x="247.06" y="354.13" width="319.67" height="171.62" rx="10"/><rect class="cls-8" x="382.01" y="383.5" width="107.33" height="22.64"/><rect class="cls-6" x="382.01" y="426.27" width="85.65" height="5.27"/><rect class="cls-6" x="382.01" y="438.84" width="124.44" height="5.27"/><rect class="cls-2" x="268.6" y="496.58" width="271.31" height="5.27"/><rect class="cls-2" x="268.6" y="509.16" width="281.94" height="5.27"/><rect class="cls-15" x="270.17" y="476.99" width="134.58" height="9.64"/><rect class="cls-7" x="268.81" y="374.81" width="90.56" height="90.56" rx="5"/><path class="cls-3" d="M329.79,480.17s24.09,1.73,24.09,0V459.26c0-5.18-1.58-25.94-9.44-33.48s-14.81-2-14.81-2-7-5.5-14.82,2-9.43,28.3-9.43,33.48v20.91c0,1.73,24.08,0,24.08,0Z" transform="translate(-14.2 -36.02)"/><g class="cls-16"><ellipse class="cls-11" cx="313.62" cy="461.97" rx="35.66" ry="27.72"/></g><path class="cls-5" d="M340.44,474.44c0,1.69-5,11.87-10.86,11.87s-10.45-10.18-10.45-11.87,4.77-3.06,10.65-3.06S340.44,472.75,340.44,474.44Z" transform="translate(-14.2 -36.02)"/><path class="cls-12" d="M337.56,473.73s-2.73,2.51-8.1,2.51-7.86-2.51-7.86-2.51V464.5h16Z" transform="translate(-14.2 -36.02)"/><path class="cls-13" d="M314.1,440.4s-4,25.94,15.48,26.41,15.18-27,15.18-27.83l-7.2-6.13-16-1.41Z" transform="translate(-14.2 -36.02)"/><path class="cls-3" d="M312.77,438.51s-1.26,4.25,5.82,3.62,9.69-3.62,9.69-3.62-4.35,6.29-1.2,6.6,14.62-4.71,15.72-6.6c0,0-7.55,9.59,3.77,2v-6l-8.33-6.29H321.6Z" transform="translate(-14.2 -36.02)"/><path class="cls-14" d="M328.63,449.13l-.73,7a2.65,2.65,0,0,0,3.46,0l-.63-7S329.52,448,328.63,449.13Z" transform="translate(-14.2 -36.02)"/><path class="cls-12" d="M791.22,215l-.7,17.33s13.11,4.68,13.11,0c0-1.4.47-16.86.94-19.2S791.22,215,791.22,215Z" transform="translate(-14.2 -36.02)"/><path class="cls-3" d="M791,503.63a29.37,29.37,0,0,1,1.12,8.62c-.28,3.9,0,6.12-1.67,6.4s-5.29.83-6.12,0-.46-2.79-1.67-3.2-1.67,2.92-2.51,4.87-13.63,6.95-19.19,6.95-5.29-1.11-5-3.06,3.06-.83,6.4-4.45,16.41-15.3,17.25-17.8,10.29-1.12,10.29-1.12Z" transform="translate(-14.2 -36.02)"/><path class="cls-3" d="M764.29,340.54s5.15,45.43,7,64.16,5.16,27.16,6.56,49.65S779.63,502,779.63,502s4.07,2.3,10.29-1.12c0,0,9-36.66,9.49-49.77s-3.74-24.36-2.81-34.19,10.31-52.92,11.24-63.7-3.74-29-6.08-33.72-32.32,0-32.32,0l-5.62,2.34Z" transform="translate(-14.2 -36.02)"/><path class="cls-17" d="M764.76,307.75s-5.15,11.71-.94,14.05,17.33,6.56,28.1,4.22,14.05-4.68,16.86-10.3,10.77-26.23,11.24-43.09-6.56-35.6-8-37.94a14.45,14.45,0,0,0-7-5.15c-1.87-.47-9.83.94-12.17.94s-11.24-1.41-19.2,9.36S764.76,307.75,764.76,307.75Z" transform="translate(-14.2 -36.02)"/><path class="cls-18" d="M766.51,323s19.63,1,29.47-17.85,9.81-29.35,7.72-37.53S791.1,249,791.1,249l-7.61-3c-2.34,0-1.87-17-9.83-6.19s-8.9,67.91-8.9,67.91-5.15,11.71-.94,14.05" transform="translate(-14.2 -36.02)"/><path class="cls-13" d="M783.26,183.18s-4.69,12.87-5.39,17.79-3,13.82,9.37,15.22,17.33-3,17.33-3l4.68-6.09,5.62-6.79L816,183.88l-18.26-3.75Z" transform="translate(-14.2 -36.02)"/><path class="cls-3" d="M788.88,187.16s-9.37-1.88-8-8.43,12.65-9.84,16.87-11.71,16.15-1.64,21.77,4.68a26.66,26.66,0,0,1,6.79,21.78c-1.17,7.49-12.88,18-15,20.84s-5.39,3.51-6.56,3.28-4.92.47-5.62-.94-1.17-5.62-.47-8.43,5.15-6.09,5.15-6.09,7.73,0,7-4.68-2.58-5.39-4.92-4.68a12.12,12.12,0,0,0-4,2.1s-2.58,1.17-2.81-1.64-.23-4.21-2.81-4.68S790.28,187.62,788.88,187.16Z" transform="translate(-14.2 -36.02)"/><path class="cls-14" d="M780.91,188.09l-3.74,9.6s.23,2.58,3.51,1.41l2.58-9.84S782.55,187.16,780.91,188.09Z" transform="translate(-14.2 -36.02)"/><path class="cls-13" d="M702.47,316s-4.92.7-6.79-.23-5.39-4.69-8-5.39-4.21,0-3.74.94,6.09,3.74,5.38,4.45-15.22,5.85-18.73,6.79-2.34,9.13.7,9.36,23.89-.46,33.49-9.36Z" transform="translate(-14.2 -36.02)"/><path class="cls-17" d="M778.34,234.93a78.34,78.34,0,0,0-19.2,27.16c-7,16.86-8.2,19.2-10.31,20.14s-23.41,9.37-36.29,20.61-12.41,9.83-12.18,12.64,1.41,8.43,4,8.67,47.3-2.11,62.76-11.71,23.65-32.55,25.06-38.41,6.79-20.84,1.63-29.74S782.09,233.05,778.34,234.93Z" transform="translate(-14.2 -36.02)"/><path class="cls-12" d="M144.54,249.85l-2.2-17.3h-6.92s-4.4,0-4.4.94-.94,19.81-.94,19.81l11-.62Z" transform="translate(-14.2 -36.02)"/><rect class="cls-3" x="-0.72" y="457.01" width="289.27" height="5.03" transform="translate(-337.45 540.23) rotate(-86.64)"/><rect class="cls-3" x="-73.16" y="450.52" width="293.29" height="5.03" transform="translate(-399.57 426.53) rotate(-81.98)"/><rect class="cls-3" x="43.45" y="526.99" width="80.04" height="5.03"/><rect class="cls-3" x="50.52" y="476.72" width="75.92" height="5.03"/><rect class="cls-3" x="57.02" y="431.74" width="72.07" height="5.03"/><rect class="cls-3" x="63.14" y="387.07" width="68.57" height="5.03"/><rect class="cls-3" x="68.5" y="349.04" width="65.45" height="5.03"/><rect class="cls-3" x="73.72" y="311.93" width="62.41" height="5.03"/><path class="cls-13" d="M235.21,249.53s7.44-2.83,9.64-6a22.94,22.94,0,0,1,8.49-6.61c1.26-.31,3.46.32,2.52,1.58a32.45,32.45,0,0,1-4.41,3.77s9.12-.63,12.27-1.57,6.29-1.89,7.23-1.26,4.72,6.92.94,8.17-17.92,6.29-24.52,6.61-11.32.94-11.32.94Z" transform="translate(-14.2 -36.02)"/><path class="cls-13" d="M139.2,234.75s10.46-3.87,12.16-7.13c2.72-5.24,3.87-8.28,1.36-16.45s-5.35-11.64-5.35-13.21-11.32-2.83-11.32-2.83l-13.52,5.35,3.78,19.18Z" transform="translate(-14.2 -36.02)"/><path class="cls-13" d="M89.52,459.89a66.48,66.48,0,0,0-5,6.12A88.61,88.61,0,0,0,71,493.54a284.73,284.73,0,0,0-7.86,38.67l8.81,2.52S85.43,508,90.77,497.94s10.69-15.09,11.32-18.55,4.72-19.81,4.72-19.81l-4.09-2.52Z" transform="translate(-14.2 -36.02)"/><path class="cls-18" d="M90.77,497.94c5.35-10.06,10.69-15.09,11.32-18.55s4.72-19.81,4.72-19.81l-4.09-2.52-13.2,2.83a66.48,66.48,0,0,0-5,6.12s5.27,4.89,8.42,5.83S90.77,497.94,90.77,497.94Z" transform="translate(-14.2 -36.02)"/><path class="cls-13" d="M98.32,461.46s-.53,3.93-.77,10.7a208.84,208.84,0,0,0,1.08,29.24C101.15,525,104,546.68,104,549.19s10.38.95,10.38.95,3.14-43.4,4.08-56.29c.47-6.32.93-14.38,1.24-21.37.33-7.25.5-13.34.34-15.1-.32-3.46-12.27-4.72-12.27-4.72Z" transform="translate(-14.2 -36.02)"/><path class="cls-18" d="M119.68,472.48c.33-7.25.5-13.34.34-15.1-.32-3.46-12.27-4.72-12.27-4.72l-9.43,8.8s-.53,3.93-.77,10.7a43.77,43.77,0,0,0,20.58.31Z" transform="translate(-14.2 -36.02)"/><path class="cls-3" d="M62.47,529.7S58.7,536.3,58.39,541s-2.52,5-.32,6,7.55,3.15,8.49,2.2,1.89-3.14,2.83-2.51.63,3.46.63,3.46,9.75,3.14,15.09,4.71,6.61,1.26,6.92,0-3.14-1.57-6.29-4.71-12.89-16-13.2-17S65,532.53,62.47,529.7Z" transform="translate(-14.2 -36.02)"/><path class="cls-3" d="M103.35,547.31a20.37,20.37,0,0,0-.94,10.06c.94,5.34-1.26,7.55,1.26,7.86s8.49.94,9.11,0,.32-4.09,1.58-3.46.31,3.77,1.88,3.77,19.81,0,23-.94,1.26-3.14-.95-3.77-7.54-.94-11.63-3.46-9.75-8.49-12-9.43C114.67,547.94,104.92,548.88,103.35,547.31Z" transform="translate(-14.2 -36.02)"/><path class="cls-3" d="M91.82,334.54s-2.07,3.67-4.63,9.21c-4.27,9.2-9.88,23.55-9.62,34.81.42,18,7.12,83.43,7.12,83.43s25.58,8.38,40.25,2.1c0,0,11.74-85.53,12.58-102.3a120.85,120.85,0,0,0-1.68-28.51Z" transform="translate(-14.2 -36.02)"/><path class="cls-17" d="M92.24,270.39c-.55,1.2-5.45,12.16-5,31.44s-3.77,31.87,2.1,36.48,39.83,6.29,48.21,1.26,18.87-26.42,20.13-39.83.83-19.29.83-19.29,20.13,10.48,35.64,8.81,38.57-23.06,44-34.8c0,0-.42-4.61-1.26-5.87s-7.54-2.94-21-.42-20.54,8.38-28.93,8-25.57-10.06-34.8-10.9-20.54.42-30.18,2.52S99.79,254,92.24,270.39Z" transform="translate(-14.2 -36.02)"/><path class="cls-18" d="M89.31,338.31c5.87,4.61,39.83,6.29,48.21,1.26s18.87-26.42,20.13-39.83.83-19.29.83-19.29l-6.29-3.35a88.78,88.78,0,0,1-8,33.54c-8,17.19-13.84,23.06-26.83,24.31S89.31,338.31,89.31,338.31Z" transform="translate(-14.2 -36.02)"/><path class="cls-3" d="M139.2,204.57s.42-5,2.51-4.62,7.13,1.26,8.39-.42,4.19-5.86-1.68-9.22-7.13-8.38-20.12-9.22-23.9,1.67-28.09,21-3.36,38.57-7.13,47.8-7.55,18.86-5,21,10.48,6.29,15.93,6.71,8.39,1.67,9.64-1.26a14.11,14.11,0,0,1,2.52-4.19s-.42,6.7,1.26,7.54,15.09,2.1,21.8-2.09,5.45-6.71,5-14.26-2.94-13.83-4.19-21.8.84-17.19-2.1-21a34.41,34.41,0,0,0-5-5.45s-8-2.52-5.45-5.87,7.55.42,7.55.42A5.68,5.68,0,0,0,139.2,204.57Z" transform="translate(-14.2 -36.02)"/><path class="cls-14" d="M151.25,205.68l3.75,7s-.24,1.88-3.52,1l-2.57-7.19A1.74,1.74,0,0,1,151.25,205.68Z" transform="translate(-14.2 -36.02)"/><path class="cls-4" d="M649.33,637.86,524.71,632c-5.33-.25-12.53-5.58-7.15-14.73l34-51.91,118.25,5.54a5.16,5.16,0,0,1,4.72,6.56l-15.13,53.19A10,10,0,0,1,649.33,637.86Z" transform="translate(-14.2 -36.02)"/><path class="cls-4" d="M670.76,571,550.2,565.33l3.85-82a7.32,7.32,0,0,1,7.66-7l111.43,5.21c4.05.19,7.18,3.5,6.9,9.42l-3.5,74.77A5.52,5.52,0,0,1,670.76,571Z" transform="translate(-14.2 -36.02)"/><path class="cls-6" d="M550.11,478.66H671.27a2.53,2.53,0,0,1,2.53,2.53v86.93a0,0,0,0,1,0,0H547.58a0,0,0,0,1,0,0V481.19a2.53,2.53,0,0,1,2.53-2.53Z" transform="translate(10.96 -64.02) rotate(2.68)"/><rect class="cls-17" x="574.08" y="468.65" width="72.12" height="111.76" transform="translate(43.45 1073.43) rotate(-87.32)"/><path class="cls-5" d="M556.72,486.67l110.14,5.16-3.3,70.55-110.14-5.16,3.3-70.55m-1.43-1.56-3.44,73.54L665,564l3.45-73.55-113.14-5.29Z" transform="translate(-14.2 -36.02)"/><path class="cls-5" d="M604.45,482.64a1.16,1.16,0,1,1-1.1-1.22A1.16,1.16,0,0,1,604.45,482.64Z" transform="translate(-14.2 -36.02)"/><path class="cls-5" d="M621.23,484.09l-13.1-.62a.77.77,0,0,1-.74-.8.78.78,0,0,1,.81-.74l13.11.62a.77.77,0,0,1-.08,1.54Z" transform="translate(-14.2 -36.02)"/><g class="cls-19"><rect x="563.34" y="500.89" width="66.1" height="9.8" transform="translate(10.12 -63.37) rotate(2.68)"/><rect x="562.56" y="515.48" width="66.1" height="13.74" transform="translate(10.89 -63.32) rotate(2.68)"/><rect x="561.59" y="535.8" width="26.9" height="13.74" transform="translate(11.82 -62.33) rotate(2.68)"/><rect x="592.77" y="537.45" width="34.87" height="13.74" transform="translate(11.93 -63.97) rotate(2.68)"/><rect x="637.84" y="503.24" width="17.33" height="17.33" transform="translate(10.46 -65.71) rotate(2.68)"/><rect x="636.57" y="525.13" width="17.33" height="27.69" transform="translate(11.72 -65.62) rotate(2.68)"/></g><path class="cls-20" d="M646.32,631.07,521.7,625.24a5.19,5.19,0,0,1-4.14-7.94l28-52.19L671.64,571l-15.28,52.87A10,10,0,0,1,646.32,631.07Z" transform="translate(-14.2 -36.02)"/><polygon class="cls-6" points="634.14 578.02 518.68 572.61 537.77 534.36 646.59 539.46 634.14 578.02"/><polygon class="cls-5" points="625.56 574.35 529.34 569.85 545.24 537.97 635.93 542.22 625.56 574.35"/><path class="cls-5" d="M602.3,632.6,575,631.32a1.15,1.15,0,0,1-1.09-1.19h0A1.15,1.15,0,0,1,575.1,629l27.31,1.28a1.14,1.14,0,0,1,1.08,1.19h0A1.15,1.15,0,0,1,602.3,632.6Z" transform="translate(-14.2 -36.02)"/><polygon class="cls-4" points="591.18 588.94 560.24 587.5 565.36 577.25 594.52 578.61 591.18 588.94"/><ellipse class="cls-21" cx="225.62" cy="544.47" rx="69.18" ry="23.41"/><path class="cls-22" d="M309,580.5c0,12.93-31,23.41-69.18,23.41s-69.18-10.48-69.18-23.41v25.16c0,12.92,31,23.4,69.18,23.4S309,618.58,309,605.66Z" transform="translate(-14.2 -36.02)"/><path class="cls-23" d="M239.82,603.91c29,0,53.83-5,64.11-12.11a10.8,10.8,0,0,0,1.26-4.95c0-13.85-28.84-25.08-64.43-25.08S176.34,573,176.34,586.85a11.57,11.57,0,0,0,2.38,6.76C190.35,599.73,213.34,603.91,239.82,603.91Z" transform="translate(-14.2 -36.02)"/><path class="cls-24" d="M239.82,603.91c24.29,0,45.63-4.24,58-10.65a9,9,0,0,0,.82-3.63c0-12.26-25.9-22.2-57.86-22.2s-57.85,9.94-57.85,22.2a9.48,9.48,0,0,0,1.51,4.89C197,600.22,217.15,603.91,239.82,603.91Z" transform="translate(-14.2 -36.02)"/><path class="cls-6" d="M376.5,588.6H309c-.07,0-.13,0-.19,0s-.13,0-.19,0h-.41v.09c-2.88.61-5.14,5.48-5.14,11.48s2.26,10.86,5.14,11.48h.08a2.41,2.41,0,0,0,.52.11,2.33,2.33,0,0,0,.51-.11H376.5Z" transform="translate(-14.2 -36.02)"/><path class="cls-25" d="M418.23,600.17c0-7-2.82-12.77-6.3-12.8v-.23H376.5v.27c-3.41.2-6.15,5.82-6.15,12.76s2.74,12.56,6.15,12.76v.2h35.43V613C415.41,612.93,418.23,607.22,418.23,600.17Z" transform="translate(-14.2 -36.02)"/><path class="cls-26" d="M190.5,596.91c12.55,4.32,30,7,49.32,7,20.84,0,39.52-3.13,52.2-8.06a8.51,8.51,0,0,0,2.2-5.4c0-10.55-23.93-19.11-53.46-19.11s-53.45,8.56-53.45,19.11C187.31,592.72,188.47,594.89,190.5,596.91Z" transform="translate(-14.2 -36.02)"/><path class="cls-27" d="M259.47,577.9c0,6.39-16.08,4.24-28,4.24s-25.19,1.5-25.19-4.89,14.54-11.74,26.42-11.74S259.47,571.5,259.47,577.9Z" transform="translate(-14.2 -36.02)"/><path class="cls-3" d="M418.23,600.17c0,7.07-2.83,12.8-6.33,12.8s-6.33-5.73-6.33-12.8,2.84-12.8,6.33-12.8S418.23,593.1,418.23,600.17Z" transform="translate(-14.2 -36.02)"/></svg>