<svg xmlns="http://www.w3.org/2000/svg" width="523" height="409" viewBox="0 0 523 409" fill="none"><path d="M137.131 42.2772C138.9 46.0994 141.245 48.8792 145.512 49.5742C148.525 50.0606 151.398 48.8792 152.938 46.2454C154.091 44.3618 154.805 42.2424 155.027 40.0448C155.248 37.8472 154.971 35.6279 154.217 33.5521C152.903 29.7299 149.22 28.4582 145.252 30.4249C144.063 31.0156 143.559 30.9774 142.889 29.7299C141.009 26.1857 137.896 24.7054 133.955 25.0182C131.467 25.2023 129.754 26.6096 128.83 28.8647C128.347 30.0357 127.968 30.4839 126.777 29.5597C125.209 28.3539 123.409 28.3956 121.679 29.2122C120.73 29.6535 120.449 29.4346 120.157 28.479C119.462 26.2065 118.534 24.0209 116.648 22.426C114.153 20.3412 110.904 20.4975 108.572 22.836C107.643 23.7936 106.888 24.906 106.342 26.1231C106.199 26.4289 105.994 26.7972 105.601 26.7486C105.209 26.6999 105.066 26.3108 105.007 25.9807C104.889 25.3013 104.81 24.6156 104.771 23.9271C104.618 21.116 103.1 19.0173 100.56 18.1347C98.0196 17.2521 96.0251 18.3814 94.3677 20.15C93.4039 21.2213 92.5484 22.3852 91.8137 23.6248C91.0875 24.7993 90.5315 26.078 89.8679 27.3775C88.5683 26.1023 87.1541 25.0355 85.2326 25.3969C83.3111 25.7583 82.0567 27.0266 81.1741 28.6597C80.6286 29.6674 80.2151 29.7647 79.2213 29.0801C75.9828 26.8389 72.9007 26.9953 69.8395 29.584C69.009 30.2789 68.7519 30.126 68.1994 29.3512C67.1237 27.7671 65.7797 26.3831 64.2278 25.2614C60.4056 22.6067 56.5834 23.4823 54.3144 27.5582C53.9669 28.1559 53.7202 28.7987 53.3519 29.5805C51.6194 27.9194 49.4502 26.7853 47.0974 26.3108C46.0549 26.1023 46.3468 25.1259 46.3433 24.4275C46.3225 17.5405 46.3433 10.6536 46.3433 3.76662C46.319 0.521212 45.8048 0 42.615 0C39.4251 0 36.2492 0 33.0664 0C29.9391 0 29.5256 0.423919 29.5256 3.47474C29.5256 20.7187 29.5256 37.9639 29.5256 55.2102C29.5256 55.5368 29.6299 55.9052 29.2754 56.2109C28.3998 55.6654 28.7299 54.8384 28.7299 54.1713C28.7091 37.562 28.7091 20.9527 28.7299 4.34343C28.7299 1.0459 28.3825 0.705373 25.0224 0.701898C21.7793 0.701898 18.5362 0.701898 15.2931 0.701898C12.5342 0.701898 11.9191 1.30303 11.9156 4.06893C11.9156 20.7917 11.9273 37.5157 11.9504 54.2408C11.9504 55.8044 11.6029 56.3708 9.97676 56.2839C7.32207 56.1484 4.65346 56.2839 1.98486 56.2318C0.594971 56.197 -0.0582581 56.6627 0.00428772 58.1221C0.0737762 59.7413 0.0703125 61.364 0.00428772 62.9867C-0.0443573 64.3488 0.546341 64.8005 1.87369 64.7901C7.02325 64.7449 12.1728 64.7901 17.3258 64.7901H138.351C141.186 64.7901 141.186 64.7901 141.186 61.8817C141.186 60.6656 141.151 59.4494 141.186 58.2367C141.235 56.8642 140.696 56.1936 139.251 56.2596C137.861 56.3221 136.471 56.2596 135.081 56.2596C134.282 56.2596 133.903 55.9886 134.115 55.0956C135.147 50.8112 136.134 46.5616 137.131 42.2772ZM89.7324 39.3967V39.3411C104.674 39.3411 119.58 39.3411 134.504 39.3133C136.047 39.3133 136.37 39.7233 135.988 41.2139C134.925 45.3489 134 49.5221 133.021 53.6813C132.419 56.2457 132.419 56.2492 129.709 56.2492H87.0221C74.6451 56.2492 62.2646 56.2144 49.8876 56.2874C48.1849 56.2874 47.4553 55.7592 47.0452 54.1192C45.9507 49.8661 44.6546 45.6651 43.4489 41.4433C42.8756 39.4314 42.8895 39.4001 44.9639 39.4001C59.8867 39.3932 74.8095 39.392 89.7324 39.3967ZM70.531 57.7468C92.2272 57.7468 113.925 57.7468 135.623 57.7468C140.196 57.7468 139.623 56.8051 139.664 62.1458C139.664 63.1118 139.251 63.5149 138.299 63.4627C136.909 63.3828 135.519 63.2925 134.129 63.289C125.688 63.2705 117.248 63.2705 108.809 63.289H4.37201C1.52968 63.289 1.52966 63.289 1.53662 60.398C1.53662 57.7503 1.53662 57.7398 4.2365 57.7398L70.531 57.7468ZM13.4063 29.2539C13.4063 21.0998 13.4063 12.9434 13.4063 4.78472C13.4063 2.23426 13.4063 2.23079 16.0263 2.23079C19.1535 2.23079 22.2808 2.28638 25.4081 2.20646C26.864 2.16824 27.472 2.57479 27.4686 4.14885C27.4269 20.9249 27.4269 37.701 27.4686 54.4771C27.4686 55.8669 26.923 56.2978 25.6096 56.2804C22.2565 56.2283 18.8964 56.1901 15.5329 56.2978C13.8198 56.3534 13.3646 55.6932 13.3785 54.074C13.4411 45.7832 13.4063 37.5272 13.4063 29.2365V29.2539ZM30.8078 28.5972C30.8078 20.2578 30.8425 11.9427 30.7765 3.61373C30.7765 1.9945 31.3255 1.48372 32.8892 1.52889C36.1867 1.61228 39.4912 1.61923 42.7783 1.52889C44.3975 1.48024 44.8631 2.0918 44.8631 3.65543C44.8006 10.6049 44.8006 17.544 44.8631 24.4726C44.8631 25.8 44.467 26.4185 43.15 26.7486C40.361 27.4274 37.9516 29.1776 36.4438 31.6202C35.0539 33.8023 35.1165 36.3389 36.5203 38.1249C37.1562 38.931 38.0457 39.7928 38.9978 39.3689C41.6073 38.2083 41.6108 40.1264 42.0312 41.6587C42.2015 42.2737 42.4447 42.8679 42.5802 43.4864C43.3307 46.9125 44.9465 50.1336 44.8562 53.7647C44.8214 55.1095 44.3593 55.6168 43.0145 55.5924C39.6614 55.5368 36.3048 55.5091 32.9378 55.5924C31.2526 55.6446 30.7487 55.0156 30.7592 53.3756C30.8391 45.1161 30.8078 36.8323 30.8078 28.5798V28.5972Z" fill="#2E2A26"></path><path d="M20.3801 13.7166C21.4226 13.7166 22.465 13.7166 23.5074 13.7166C24.4525 13.7166 24.8695 13.2962 24.873 12.358C24.8765 11.4198 24.7132 10.7353 23.5804 10.7422C21.4434 10.7422 19.3064 10.7422 17.166 10.7422C16.1236 10.7422 15.9915 11.4372 15.9915 12.2642C15.9915 13.0912 16.2591 13.7166 17.2668 13.6923C18.2745 13.668 19.3516 13.6923 20.3941 13.6923L20.3801 13.7166Z" fill="#2E2A26"></path><path d="M20.6131 9.54355C21.5373 9.54355 22.4616 9.51923 23.3928 9.54355C24.397 9.5783 24.8661 9.17175 24.88 8.12238C24.8939 7.07301 24.4735 6.53442 23.3546 6.55527C21.3926 6.59002 19.4235 6.59002 17.4476 6.55527C16.2905 6.5379 15.9639 7.10428 15.9673 8.16755C15.9708 9.23082 16.5163 9.55745 17.4823 9.55745C18.5317 9.5227 19.5706 9.54355 20.6131 9.54355Z" fill="#2E2A26"></path><path d="M37.7849 5.14052C36.5166 5.14052 35.2483 5.16832 33.9801 5.14052C33.0975 5.1162 32.6909 5.488 32.7292 6.36711C32.7344 6.4249 32.7344 6.48305 32.7292 6.54084C32.4755 10.5681 32.4755 10.5681 36.461 10.5681C38.0768 10.5681 39.689 10.5368 41.3048 10.5681C42.4341 10.5959 42.9449 10.2206 42.9866 8.97664C43.1047 5.15442 43.1499 5.15442 39.3451 5.15442H37.7884L37.7849 5.14052Z" fill="#2E2A26"></path><path d="M447.732 113.24C451.52 110.345 452.732 106.839 452.597 102.621C452.444 97.8224 452.524 93.0168 452.597 88.2147C452.618 86.7241 452.121 86.0708 450.595 86.1716C449.445 86.2515 448.281 86.1368 447.121 86.1959C445.818 86.2654 445.731 85.8484 446.377 84.8303C449.61 79.615 452.33 74.0992 454.501 68.36C456.51 63.2409 457.902 57.9009 458.65 52.4526C458.837 51.0106 458.347 50.6458 456.954 51.3129C453.608 52.9113 450.873 55.3019 448.514 58.1269C447.343 59.5168 446.269 61.0075 444.935 62.7309C446.009 54.7946 446.533 47.1954 446.276 39.5579C446.084 32.4471 445.303 25.3645 443.941 18.3828C443.82 17.7782 443.854 17.0137 443.083 16.833C442.43 16.6801 442.04 17.257 441.655 17.6635C437.565 21.9583 434.733 27.0453 432.443 32.4624C430.483 37.2237 429.007 42.17 428.037 47.2266C427.947 47.661 427.933 48.1231 427.547 48.5088C426.112 45.5205 424.705 42.5566 423.266 39.6135C422.999 39.0679 422.836 38.2722 422.068 38.2722C421.3 38.2722 421.154 39.0818 420.914 39.6343C417.457 47.5567 416.456 55.8649 417.154 64.4162C417.719 71.3412 419.214 78.1586 421.599 84.6844C422.029 85.8693 421.769 86.2307 420.525 86.2029C418.093 86.1438 415.66 86.2202 413.228 86.182C411.984 86.1612 411.456 86.7032 411.404 87.9194C411.185 93.4095 410.976 98.8996 410.667 104.386C410.472 107.809 411.167 110.828 414.256 113.16H391.709C397.616 108.257 398.009 101.499 398.089 94.6256C398.089 93.5832 397.654 93.1384 396.65 93.1384C389.879 93.1384 383.108 93.1384 376.337 93.1384C375.642 93.1384 375.055 93.3157 374.947 94.1322C374.217 99.4625 374.488 104.629 377.403 109.372C378.366 110.94 379.756 112.041 381.271 113.226H372.695C369.398 113.226 366.093 113.302 362.799 113.195C361.093 113.139 360.541 113.785 360.648 115.415C360.733 116.976 360.733 118.541 360.648 120.102C360.596 121.392 361.131 121.809 362.386 121.795C368.293 121.746 374.2 121.767 380.107 121.767H519.18C522.036 121.767 522.036 121.767 522.032 118.921C522.032 117.531 521.994 116.141 522.032 114.751C522.064 113.622 521.546 113.205 520.462 113.219C518.148 113.25 515.826 113.132 513.512 113.257C511.851 113.348 511.462 112.677 511.466 111.141C511.503 91.5783 511.51 72.0166 511.487 52.4561C511.487 51.0106 511.511 49.5617 511.434 48.1162C511.358 46.6151 510.573 45.8194 508.985 45.8228C503.484 45.8437 497.987 45.8228 492.49 45.8228C491.083 45.8228 490.364 46.5908 490.252 47.9459C490.2 48.5818 490.225 49.2211 490.225 49.857C490.225 70.1101 490.225 90.3656 490.225 110.623C490.225 111.343 490.416 112.1 489.912 113.011C489.481 112.104 489.641 111.304 489.641 110.554C489.627 90.588 489.627 70.6221 489.641 50.6562C489.641 50.0169 489.641 49.381 489.641 48.7451C489.564 46.1182 488.929 45.4997 486.302 45.4962H471.544C469.077 45.4962 468.372 46.1703 468.372 48.693C468.358 59.5805 468.358 70.4611 468.372 81.3347C468.372 91.2308 468.327 101.141 468.407 111.023C468.407 112.795 467.896 113.299 466.148 113.271C460.165 113.181 454.206 113.24 447.732 113.24ZM491.736 80.1707C491.736 69.8785 491.767 59.5863 491.705 49.2906C491.705 47.6193 492.23 47.0876 493.884 47.1189C498.623 47.2058 503.37 47.1884 508.109 47.1189C509.537 47.0981 510.027 47.5845 510.024 49.0231C509.991 69.8414 509.991 90.6598 510.024 111.478C510.024 112.868 509.555 113.275 508.21 113.257C503.529 113.198 498.828 113.236 494.158 113.233C491.747 113.233 491.726 113.233 491.726 110.874C491.728 100.642 491.732 90.4073 491.736 80.1707ZM469.866 80.1464C469.866 69.7221 469.887 59.3257 469.845 48.9154C469.845 47.3865 470.262 46.7297 471.93 46.761C476.614 46.849 481.299 46.849 485.985 46.761C487.688 46.7332 488.175 47.4282 488.171 49.0335C488.141 69.7986 488.141 90.5625 488.171 111.325C488.171 112.896 487.619 113.288 486.149 113.264C481.406 113.191 476.659 113.177 471.902 113.264C470.304 113.295 469.818 112.809 469.818 111.2C469.897 100.852 469.866 90.5011 469.866 80.1464ZM431.839 87.6935C437.63 87.6935 443.412 87.6935 449.185 87.6935C450.175 87.6935 451.033 87.7144 451.078 89.0834C451.269 94.643 451.242 100.178 450.946 105.714C450.738 109.699 446.999 113.202 442.954 113.264C434.917 113.393 426.877 113.368 418.84 113.288C415.587 113.257 413.127 110.995 412.238 107.857C411.755 106.158 412.186 104.525 412.238 102.868C412.397 98.5347 412.7 94.2087 412.773 89.8791C412.804 87.9402 413.711 87.6518 415.358 87.6727C420.848 87.7387 426.345 87.69 431.839 87.6935ZM441.356 120.287H364.797C361.948 120.287 361.948 120.287 361.951 117.476C361.951 114.731 361.951 114.724 364.71 114.731C383.512 114.769 402.317 114.842 421.119 114.842C439.74 114.842 458.365 114.769 476.989 114.731C491.106 114.7 505.225 114.666 519.346 114.626C520.288 114.626 520.781 114.915 520.757 115.898C520.757 116.475 520.757 117.055 520.757 117.635C520.757 120.287 520.757 120.29 518.099 120.29L441.356 120.287ZM442.544 18.8484C443.72 24.4946 444.432 30.2272 444.674 35.9893C444.938 42.3446 445.06 48.7208 444.344 55.0552C443.799 59.8956 443.844 64.8401 441.526 69.392C439.094 74.1524 437.634 79.2777 436.505 84.4933C436.297 85.4697 436.026 86.314 434.768 86.1577C433.51 86.0013 433.851 85.0075 433.837 84.2778C433.788 81.7934 433.93 79.3159 434.083 76.8315C434.841 64.4648 436.769 52.2546 438.882 40.0721C439.82 34.662 440.929 29.3004 441.95 23.8937C442.061 23.303 442.43 22.483 441.509 22.3266C440.783 22.205 440.696 22.9972 440.578 23.5567C440.275 25.0265 439.99 26.5033 439.702 27.9765C437.548 38.8629 435.63 49.791 434.267 60.8059C434.01 62.8665 433.718 64.9166 433.444 66.9736C432.271 61.943 430.761 56.9966 428.927 52.1677C428.77 51.6738 428.75 51.1464 428.871 50.6423C429.914 43.9221 431.7 37.414 434.539 31.2254C436.536 26.816 438.986 22.6463 442.544 18.8484ZM386.5 94.643C389.391 94.643 392.286 94.643 395.187 94.643C396.07 94.643 396.848 94.7125 396.779 95.9043C396.525 100.248 396.16 104.591 393.999 108.483C393.033 110.22 391.695 111.662 389.714 112.333C387.364 113.129 384.798 112.997 382.542 111.963C380.286 110.93 378.51 109.073 377.577 106.773C376.187 103.427 376.048 99.935 376.121 96.3839C376.146 94.994 376.719 94.6048 378.012 94.6465C380.83 94.6882 383.665 94.643 386.5 94.643ZM457.19 52.7167C456.618 56.6719 455.688 60.5669 454.411 64.3537C452.037 71.5915 448.622 78.3326 444.768 84.879C443.938 86.2897 442.683 86.5191 441.523 86.0673C440.362 85.6156 441.408 84.4933 441.464 83.6663C441.512 83.3814 441.593 83.1028 441.703 82.8358C444.17 74.7431 448.017 67.3211 452.697 60.3056C453 59.8573 453.639 59.3431 452.93 58.8392C452.291 58.3806 451.888 58.9817 451.561 59.4751C450.828 60.587 450.081 61.6885 449.396 62.8282C445.272 69.6978 441.693 76.8106 439.782 84.6566C439.591 85.428 439.434 86.4322 438.291 86.1229C437.2 85.8276 437.843 84.9554 437.975 84.3856C439.848 76.3936 442.61 68.7492 447.419 61.9874C449.977 58.391 452.969 55.2081 457.19 52.7167ZM421.665 41.4481C421.859 42.7616 422.012 43.7102 422.137 44.6588C423.273 53.1928 424.351 61.7337 425.108 70.3128C425.532 75.0906 425.998 79.8684 425.987 84.6705C425.987 85.2994 426.074 86.0222 425.167 86.1368C424.389 86.2341 423.638 86.2063 423.287 85.3064C423.166 84.9832 423.034 84.6601 422.916 84.3334C419.538 74.8543 417.87 65.1111 418.551 55.0379C418.851 50.3699 419.902 45.7808 421.665 41.4481ZM423.52 43.592C428.037 53.1789 431.783 63.0506 432.468 73.7598C432.772 77.6439 432.053 81.5399 430.383 85.0597C430.231 85.4706 429.93 85.8092 429.54 86.0077C429.149 86.2061 428.698 86.2498 428.277 86.1299C427.388 85.9666 427.52 85.2334 427.495 84.6218C426.939 70.8827 425.226 57.2582 423.52 43.592Z" fill="#2E2A26"></path><path d="M378.783 49.8296C378.748 53.7776 379.653 57.6771 381.424 61.2059C381.855 62.0503 381.872 62.4256 380.784 62.5159C377.365 62.8043 375.34 64.8371 374.339 67.9678C374.009 69.0102 373.689 69.4411 372.438 69.3195C369.818 69.0623 367.685 70.1812 366.246 72.3912C365.676 73.2668 365.096 73.6177 364.012 73.5969C360.826 73.5378 358.536 75.1848 357.344 78.1731C356.072 81.3629 356.722 84.4277 359.172 86.7523C361.347 88.8371 364.554 89.4591 367.205 88.1873C368.143 87.7426 368.553 87.6001 369.148 88.7294C370.798 91.8775 375.75 92.9825 379.127 91.12C379.479 90.9191 379.82 90.6999 380.149 90.4633C383.081 88.4375 383.821 88.5869 385.708 91.6308C385.91 91.954 386.108 92.2354 386.504 92.1381C386.9 92.0408 386.956 91.6725 386.966 91.3077C386.966 90.7517 386.792 89.9942 387.623 89.949C388.571 89.9004 388.377 90.7725 388.512 91.3389C388.63 91.8497 388.735 92.4682 389.433 92.3501C390.01 92.2528 390.017 91.7073 389.944 91.2277C389.725 89.7406 390.865 90.154 391.539 90.1853C395.476 90.293 398.78 88.8649 401.556 86.1581C404.451 83.3366 404.308 80.3066 401.178 77.711C400.483 77.1377 400.038 76.884 401.178 76.2099C405.733 73.5482 406.094 68.3292 401.946 65.0525C400.903 64.229 400.865 63.8676 401.727 62.8287C407.794 55.5039 407.887 47.3695 402.109 40.2428C397.39 34.3879 387.664 33.4149 382.518 38.2796C379.641 40.9934 379.106 44.5932 378.8 48.266C378.745 48.7872 378.783 49.3119 378.783 49.8296ZM387.73 80.602C387.226 79.4731 386.608 78.3985 385.885 77.3948C383.752 74.3891 382.289 73.8818 378.707 74.9312C378.335 75.0424 378.012 75.1432 377.928 74.6358C377.644 73.0234 376.824 71.5542 375.6 70.4661C375.138 70.0492 375.412 69.4724 375.513 68.9824C376.208 65.5807 378.835 63.6487 382.463 63.812C384.124 63.8885 384.405 63.5723 383.62 62.2866C380.757 57.5992 380.03 52.5017 380.308 47.1159C380.68 39.6695 386.473 35.2114 393.752 36.8897C399.631 38.2796 403.019 42.1817 404.409 47.8108C405.844 53.6345 404.062 58.6763 399.753 62.787C397.977 64.4792 397.904 64.4201 400.038 65.4973C403.356 67.1686 404.381 70.4974 402.345 73.2564C401.025 75.0459 399.166 75.8555 396.932 75.8242C396.424 75.8242 395.771 75.7964 395.701 76.4879C395.632 77.1794 396.282 77.2488 396.782 77.3461C398.281 77.5918 399.678 78.2637 400.806 79.2816C402.324 80.6923 402.585 82.7181 401.324 84.2609C399.513 86.4812 397.216 88.1978 394.353 88.4723C389.211 88.9657 389.551 89.2298 389.388 84.4138C388.995 72.7768 390.559 61.3484 393.21 50.0416C393.408 49.1938 394.395 47.8039 393.179 47.4911C391.963 47.1784 392.136 48.881 391.917 49.7219C389.343 59.8543 388.078 70.1604 387.73 80.602ZM384.12 87.8816C382.063 87.3048 380.715 88.309 379.346 89.3027C376.983 91.0193 374.506 91.0158 372.014 89.6502C369.679 88.3646 369.877 86.4951 370.937 84.4589C370.98 84.382 371.008 84.2972 371.017 84.2095C371.027 84.1217 371.018 84.033 370.993 83.9486C370.967 83.8641 370.925 83.7858 370.868 83.7182C370.811 83.6507 370.741 83.5953 370.663 83.5555C370.287 83.347 369.995 83.5555 369.766 83.8404C369.537 84.1254 369.373 84.4138 369.172 84.6917C367.25 87.3256 364.53 88.1491 361.903 86.8913C359.019 85.5014 357.57 82.4957 358.397 79.5943C359.349 76.2551 361.628 74.5733 364.94 75.0042C366.1 75.1536 366.604 74.8026 367.07 73.8366C367.42 73.0356 367.967 72.3356 368.659 71.8013C369.352 71.2669 370.167 70.9153 371.031 70.7789C374.241 70.2472 376.653 72.6796 376.611 76.2064C376.611 76.8145 375.993 77.7006 376.934 78.048C377.73 78.3434 377.925 77.4226 378.324 77.0056C379.989 75.2682 381.886 75.1327 383.481 76.7798C386.549 79.9522 387.386 83.6771 386.17 87.9441C385.566 87.6904 385.493 87.1901 385.284 86.7974C381.598 79.8792 374.214 77.0299 366.837 79.7333C366.111 80.0008 364.717 80.1016 365.165 81.2066C365.562 82.183 366.594 81.2795 367.278 81.0259C373.953 78.5866 381.552 81.5471 384.106 87.8816H384.12Z" fill="#2E2A26"></path><path d="M500.875 58.9304C502.494 58.9304 504.113 58.8748 505.739 58.9304C507.042 58.9894 507.498 58.4196 507.442 57.193C507.386 55.9664 507.414 54.6495 507.418 53.3708C507.418 52.5125 507.025 52.106 506.153 52.106C502.678 52.106 499.21 52.106 495.75 52.106C494.808 52.106 494.36 52.509 494.387 53.4542C494.391 53.512 494.391 53.57 494.387 53.6279C494.04 58.9234 494.04 58.9234 499.329 58.9234L500.875 58.9304Z" fill="#2E2A26"></path><path d="M478.532 106.901C480.492 106.901 482.455 106.846 484.411 106.925C485.61 106.978 485.964 106.436 485.853 105.383C485.746 104.396 486.329 102.95 484.533 102.95C480.498 102.916 476.462 102.916 472.427 102.95C470.484 102.971 471.249 104.521 471.11 105.529C470.943 106.72 471.572 106.967 472.653 106.919C474.599 106.842 476.572 106.901 478.532 106.901Z" fill="#2E2A26"></path><path d="M478.362 101.294C480.332 101.294 482.299 101.242 484.269 101.294C485.881 101.35 485.815 100.3 485.826 99.2092C485.836 98.1182 485.798 97.239 484.325 97.2529C480.447 97.2946 476.569 97.3085 472.695 97.2529C471.152 97.2286 471.055 98.0904 471.075 99.2509C471.096 100.356 471.041 101.36 472.639 101.294C474.543 101.235 476.454 101.294 478.362 101.294Z" fill="#2E2A26"></path><path d="M373.362 359.325C374.161 362.623 374.974 365.927 375.752 369.221C376.1 370.681 374.953 370.326 374.244 370.33C367.124 370.33 359.998 370.33 352.885 370.351C352.077 370.329 351.269 370.399 350.477 370.559C348.26 371.084 347.086 372.873 347.565 375.118C348.879 381.251 351.009 387.123 353.455 392.878C354.699 395.803 356.082 398.677 357.565 401.488C360.14 406.353 364.303 408.813 369.796 408.962C371.881 409.018 373.966 409.011 376.051 408.934C381.517 408.74 385.655 406.353 388.254 401.443C392.336 393.714 395.547 385.556 397.831 377.12C397.98 376.56 398.119 375.997 398.23 375.431C398.793 372.54 397.268 370.5 394.325 370.382C391.84 370.281 389.349 370.323 386.861 370.358C385.77 370.358 385.19 370.01 384.925 368.867C383.268 361.775 381.506 354.704 379.873 347.605C379.272 344.992 380.2 342.424 380.631 339.884C383.108 325.335 386.215 310.936 391.218 297.009C392.608 293.142 394.106 289.323 395.867 285.609C396.138 285.035 396.403 284.455 396.649 283.871C396.833 283.444 397.073 282.923 396.545 282.638C395.888 282.29 395.621 282.888 395.391 283.333C393.83 286.433 392.438 289.616 391.222 292.867C385.474 308.08 381.868 323.845 379.22 339.849C379.088 340.645 378.945 341.441 378.716 342.758C377.872 339.325 377.128 336.357 376.412 333.376C375.669 330.287 375.022 327.167 374.192 324.102C373.459 321.419 373.497 318.747 373.716 316.02C374.175 309.908 374.501 303.789 374.95 297.68C375.266 293.413 375.721 289.16 376.072 284.9C376.19 283.43 376.767 282.888 378.358 282.86C383.918 282.763 389.436 282.165 394.808 280.612C395.398 280.438 396.198 280.483 396.343 279.712C396.489 278.941 395.833 278.593 395.384 278.166C385.308 268.582 373.768 261.56 360.175 258.196C358.785 257.849 358.187 257.213 357.871 255.848C356.158 248.412 354.348 240.996 352.572 233.574C352.482 233.196 352.256 232.824 352.517 232.355C354.198 235.135 355.793 237.953 357.531 240.659C362.632 248.599 368.897 255.538 375.922 261.814C376.35 262.196 376.774 262.741 377.403 262.509C378.16 262.251 378.021 261.487 378.063 260.869C378.72 251.431 378.261 242.025 377.208 232.643C377.083 231.517 377.368 231.173 378.435 231.187C380.749 231.219 383.063 231.229 385.384 231.187C386.597 231.163 386.795 231.535 386.228 232.577C383.013 238.68 380.952 245.324 380.148 252.175C379.747 254.982 379.568 257.817 379.613 260.653C379.633 261.213 379.474 261.901 380.099 262.213C380.725 262.526 381.141 261.918 381.551 261.55C386.666 256.939 391.486 252.025 396.312 247.122C405.117 238.171 413.578 228.897 422.025 219.62C425.183 216.236 428.154 212.682 430.924 208.973C431.873 207.73 432.669 206.376 433.294 204.943C434.367 202.343 433.461 200.922 430.677 200.773C428.085 200.63 425.611 201.238 423.193 202.034C414.03 205.037 405.652 210.045 398.668 216.694C398.175 217.206 397.58 217.611 396.922 217.881C396.264 218.151 395.557 218.282 394.846 218.265C388.888 218.202 382.926 218.202 376.961 218.265C375.398 218.265 374.786 217.757 374.432 216.18C371.582 203.577 367.361 191.474 360.356 180.525C356.043 173.781 351.186 167.453 344.507 162.776C343.785 162.205 342.895 161.884 341.974 161.863C327.214 161.863 312.454 161.863 297.696 161.863C294.773 161.863 293.116 163.117 292.164 165.925C286.968 181.213 281.793 196.502 276.639 211.791C276.145 213.261 275.464 213.772 273.935 213.758C266.01 213.692 258.084 213.727 250.008 213.727C250.45 212.684 251.03 211.604 250.318 210.429C249.644 209.411 248.717 208.585 247.628 208.032C245.036 206.558 242.19 205.766 239.358 204.943C238.08 204.571 236.756 204.317 235.536 203.813C233.51 202.979 231.634 202.833 229.855 204.355C229.466 204.703 228.941 205.029 228.465 204.519C227.054 202.993 225.15 202.955 223.326 202.858C221.307 202.753 219.816 202.013 218.809 200.22C217.801 198.427 216.376 196.746 215.609 194.574C226.912 195.773 237.152 192.329 247.326 188.608C249.96 187.645 251.801 186.05 252.621 183.326C252.795 182.753 252.931 181.863 253.702 181.971C254.366 182.061 254.15 182.916 254.255 183.455C255.245 188.58 253.845 188.024 259.557 188.052H261.294C264.29 188.052 264.29 188.052 265.071 185.272C265.242 184.664 265.391 184.087 266.03 183.708C267.646 182.756 268.831 181.335 270.058 179.931C272.358 177.304 272.58 174.323 271.771 171.14C271.354 169.497 270.426 168.176 268.755 167.586C267.858 167.266 267.688 166.776 267.841 165.872C268.233 163.593 268.414 161.279 268.855 159.013C269.175 157.38 268.57 156.949 267.062 156.977C264.112 157.036 261.155 156.949 258.209 157.008C257.027 157.033 256.451 156.64 256.124 155.462C255.141 151.775 254.039 148.117 252.997 144.451C252.851 143.95 252.722 143.443 252.528 142.96C252.364 142.553 252.225 141.973 251.603 142.161C250.981 142.348 251.089 142.891 251.207 143.335C251.673 145.073 252.166 146.789 252.66 148.513C253.309 150.792 253.928 153.082 254.647 155.341C255.04 156.581 254.731 157.057 253.421 156.998C249.724 156.828 250.509 157.484 250.867 160.275C251.245 163.193 251.77 166.098 252.138 169.021C252.385 170.956 250.179 172.905 248.316 172.374C246.579 171.877 244.949 172.026 243.212 172.478C238.378 173.781 233.483 174.445 228.465 173.52C226.489 173.179 224.604 172.436 222.926 171.338C221.248 170.241 219.812 168.811 218.708 167.137C216.227 163.513 213.93 159.764 211.519 156.091C210.921 155.184 210.998 154.211 211.036 153.242C211.258 147.585 210.376 142.143 207.634 137.14C202.335 127.466 194.128 122.39 183.092 121.955C181.24 121.882 179.388 121.955 177.532 121.924C176.997 121.924 176.233 122.237 175.983 121.549C175.708 120.791 176.243 120.26 176.897 119.881C179.426 118.407 179.881 116.093 179.489 113.442C179.238 111.753 178.446 110.638 176.556 110.826C176.403 109.95 176.973 109.651 177.536 109.321C179.909 107.931 180.865 105.679 181.073 103.091C181.33 99.8801 177.31 96.7598 174.266 97.9447C172.327 98.6987 170.746 98.4242 168.991 97.5729C164.384 95.3456 159.79 95.7313 155.322 98.0177C152.156 99.6369 150.968 102.486 150.767 105.864C150.593 109.345 151.311 112.813 152.851 115.94C153.623 117.567 153.491 119.196 153.505 120.861C153.505 121.99 152.671 121.927 151.91 121.927C148.379 121.927 144.849 121.927 141.319 121.927C137.851 121.905 134.414 122.571 131.206 123.888C127.998 125.205 125.084 127.147 122.633 129.599C120.182 132.052 118.242 134.968 116.928 138.176C115.613 141.385 114.948 144.823 114.973 148.29C114.973 165.317 115.018 182.322 114.945 199.338C114.921 205.151 115.404 210.891 116.777 216.534C117.1 217.855 116.728 218.199 115.487 218.188C112.19 218.153 108.885 218.188 105.591 218.188C103.409 218.188 103.256 218.358 103.246 220.593C103.246 223.428 103.284 226.264 103.246 229.099C103.222 230.562 103.76 231.166 105.282 231.149C110.317 231.09 115.359 231.149 120.39 231.114C121.547 231.114 122.319 231.42 122.889 232.504C125.752 238.043 129.491 242.963 133.799 247.446C134.143 247.742 134.393 248.133 134.516 248.569C134.64 249.006 134.632 249.47 134.494 249.902C130.688 265.696 126.908 281.495 123.153 297.298C122.548 299.827 121.867 302.343 121.356 304.894C121.089 306.249 120.439 306.631 119.105 306.631C110.946 306.582 102.773 306.631 94.6217 306.589C92.9851 306.589 91.4736 306.648 90.7126 308.441C90.5424 308.848 90.1185 308.924 89.7189 309.049C86.6368 310.029 85.1218 312.156 85.1183 315.37C85.1341 316.851 85.3053 318.327 85.6291 319.772C85.8584 320.902 85.8098 321.704 84.4686 321.962C84.0898 322.031 83.5825 322.219 83.4261 322.511C82.3837 324.418 80.6046 324.154 78.8812 324.144C75.813 324.123 72.7483 324.116 69.6801 324.144C66.4277 324.168 64.878 325.756 64.6174 329.029C63.8703 338.477 63.0468 347.921 62.2858 357.369C61.643 365.378 61.0592 373.391 60.4199 381.4C59.9404 387.391 59.513 393.388 58.8806 399.361C58.3351 404.546 61.4832 408.305 66.7335 408.326C73.9679 408.354 81.2023 408.326 88.4367 408.326C113.093 408.326 137.749 408.326 162.403 408.326C169.787 408.326 173.634 403.406 172.018 396.199C170.917 391.293 170.01 386.345 168.971 381.425C168.738 380.316 168.825 379.979 170.166 379.986C180.118 380.056 190.069 379.986 200.017 379.986C205.282 379.986 210.542 380.059 215.807 380.066C228.48 380.08 241.155 380.08 253.831 380.066C254.062 380.084 254.294 380.084 254.526 380.066C255.287 379.945 256.378 380.323 256.694 379.42C257.048 378.309 257.027 377.113 256.635 376.015C256.464 375.504 255.919 375.507 255.453 375.466C248.944 374.884 242.438 374.305 235.936 373.728C229.202 373.133 222.465 372.554 215.727 371.991C214.879 371.918 214.455 371.55 214.448 370.698C214.441 369.847 214.448 369.079 214.448 368.266V276.943C214.448 276.481 214.448 276.018 214.448 275.553C214.427 274.629 214.778 274.267 215.72 274.618C225.574 278.287 235.699 281.3 244.869 286.641C247.135 287.958 248.573 289.956 249.675 292.2C252.604 298.166 254.129 304.591 255.634 311.013C258.803 324.529 260.721 338.293 263.605 351.865C264.123 354.297 264.762 356.699 265.45 359.086C265.905 360.667 266.569 362.171 268.504 362.477C268.771 362.49 269.021 362.606 269.203 362.8C269.385 362.995 269.483 363.253 269.477 363.519C269.521 363.75 269.48 363.989 269.361 364.192C269.242 364.394 269.054 364.547 268.831 364.621C267.865 364.968 267.604 365.788 267.403 366.64C266.5 370.462 265.919 374.361 265.318 378.242C265.023 380.146 265.888 381.484 267.403 382.488C269.067 383.556 270.965 384.204 272.935 384.378C281.135 385.278 289.329 384.747 297.518 384.139C298.558 384.113 299.594 384.02 300.621 383.861C304.096 383.166 305.469 379.545 303.429 376.626C302.648 375.543 301.628 374.655 300.448 374.031C295.729 371.404 290.566 369.784 285.69 367.519C284.433 366.935 283.213 366.261 281.948 365.698C281.149 365.351 280.906 364.791 280.791 363.961C280.579 362.546 280.791 361.626 282.442 361.459C283.675 361.334 283.96 360.517 283.887 359.346C283.137 347.636 282.428 335.923 281.146 324.251C279.631 310.512 277.796 296.801 274.057 283.461C272.452 277.718 270.464 272.106 267.156 267.088C267.591 266.446 268.164 266.741 268.623 266.741C275.798 266.71 282.977 266.713 290.166 266.696C294.12 266.696 295.993 264.59 295.632 260.664C295.395 258.071 295.284 255.451 294.638 252.932C294.332 251.754 294.784 251.417 295.767 251.115C299.812 249.871 303.759 248.373 307.362 246.118C312.178 243.116 314.169 238.547 314.479 233.137C314.566 231.58 315.052 231.191 316.522 231.205C324.099 231.263 331.68 231.263 339.264 231.205C340.779 231.205 340.963 231.653 340.626 233.018C338.85 240.204 337.169 247.411 335.438 254.607C335.268 255.302 335.143 255.997 334.368 256.476C331.811 258.057 331.415 259.298 332.725 261.925C333.179 262.778 333.287 263.774 333.027 264.705C328.628 282.79 324.262 300.883 319.931 318.984C315.386 337.979 310.868 356.989 306.379 376.015C306.285 376.407 306.195 376.803 306.094 377.193C305.399 379.91 305.521 380.101 308.269 380.115C309.774 380.115 311.282 380.066 312.786 380.115C314.096 380.167 314.767 379.677 315.083 378.346C317.993 366.085 320.931 353.83 323.899 341.58C326.38 331.295 328.865 321.011 331.355 310.728C331.547 309.928 331.741 309.275 332.711 308.938C341.491 305.884 348.934 300.654 355.821 294.549C357.433 293.118 357.419 293.083 357.937 295.22C362.339 313.428 366.74 331.636 371.141 349.846C371.725 352.254 371.527 354.673 371.61 357.095C371.715 359.983 371.83 362.872 371.958 365.761C371.979 366.254 371.864 366.963 372.614 366.939C373.365 366.914 373.223 366.209 373.223 365.712C373.24 363.589 373.223 361.466 373.223 359.343L373.362 359.325ZM219.257 245.354C219.139 245.484 219.008 245.6 218.864 245.701C213.079 248.737 207.531 252.205 202.269 256.077C202.05 256.24 201.8 256.424 201.341 255.809C201.592 255.707 201.834 255.584 202.064 255.441C207.035 251.758 212.285 248.467 217.766 245.597C218.229 245.357 218.698 245.107 219.247 245.347C219.396 244.69 219.942 244.482 220.47 244.228C226.467 241.323 232.631 238.915 239.129 237.348C239.539 237.251 239.973 236.921 240.401 237.445C240.032 238.029 239.39 237.96 238.868 238.085C235.431 238.886 232.062 239.955 228.792 241.281C225.598 242.595 222.436 244.006 219.257 245.371V245.354ZM226.127 216.91C225.512 217.674 224.768 217.455 224.108 217.472C219.771 217.587 215.421 217.702 211.098 217.716C194.034 217.771 176.959 218.313 159.915 217.08C152.723 216.562 146.711 213.487 142.233 207.698C138.348 202.677 136.02 196.926 134.407 190.842C131.437 179.622 129.105 168.326 130.12 156.619C130.467 152.738 131.006 148.78 133.768 145.788C138.713 140.437 145.106 137.797 152.184 136.563C153.407 136.351 153.942 136.744 153.852 137.995C153.814 138.512 153.852 139.037 153.852 139.555C153.796 141.445 154.689 142.526 156.503 143.096C159.316 143.999 162.319 144.133 165.201 143.481C169.092 142.606 169.78 141.549 169.064 137.658C168.79 136.167 169.29 135.712 170.76 135.722C174.113 135.78 177.46 136.012 180.788 136.417C190.198 137.459 197.832 141.688 204.024 148.888C208.843 154.496 212.749 160.702 216.696 166.88C219.615 171.456 223.646 174.462 229.118 175.147C231.99 175.535 234.901 175.515 237.767 175.088C240.592 174.636 243.386 173.996 246.68 173.35C243.097 175.404 242.211 177.892 243.462 181.554C244.96 185.943 248.153 183.91 250.964 183.34C250.123 185.602 249.484 186.262 247.142 187.187C239.643 190.144 231.975 192.51 223.927 193.392C217.878 194.053 212.353 192.986 207.697 188.597C204.097 185.202 201.018 181.398 198.019 177.499C197.102 176.307 196.188 175.115 195.24 173.951C194.691 173.284 194.11 172.523 193.068 173.013C192.137 173.451 192.224 174.285 192.345 175.115C192.422 175.63 192.439 176.158 192.547 176.662C194.503 185.797 199.104 193.632 204.542 201.051C205.188 201.933 206.14 202.312 207.238 202.441C212.232 202.992 217.225 203.571 222.217 204.178C223.531 204.331 224.848 204.494 226.144 204.762C226.613 204.856 227.186 205.151 227.249 205.738C227.311 206.325 226.703 206.433 226.335 206.656C225.06 207.455 223.76 208.205 222.485 209.004C220.835 210.047 219.945 211.833 220.282 213.383C220.671 215.155 222.072 216.27 224.184 216.51C224.806 216.576 225.47 216.395 226.127 216.927V216.91ZM88.4541 406.481C91.8454 403.503 92.2068 399.879 91.2964 395.623C87.9607 380.084 84.8369 364.499 81.6331 348.932C80.1807 341.854 78.7456 334.773 77.2758 327.698C76.845 325.613 76.8033 325.634 78.8812 325.634C101.62 325.634 124.36 325.634 147.101 325.634C152.386 325.634 156.555 328.942 157.754 334.078C158.449 337.004 158.977 339.961 159.585 342.904C163.306 360.864 167.022 378.812 170.736 396.748C171.111 398.569 171.222 400.435 170.534 402.228C169.395 405.195 166.872 406.818 163.293 406.818C138.877 406.837 114.459 406.837 90.0385 406.818C89.5486 406.832 89.0031 406.999 88.4541 406.499V406.481ZM186.886 267.036C185.705 267.915 184.541 268.819 183.342 269.667C181.911 270.681 180.76 271.831 180.91 273.774C180.913 274.036 180.851 274.295 180.73 274.528C180.609 274.761 180.432 274.96 180.215 275.108C178.988 276.15 177.783 277.224 176.528 278.27C176.08 278.649 175.604 278.965 174.951 278.722C173.929 278.343 173.113 278.878 172.421 279.483C170.42 281.22 168.436 283.006 166.514 284.858C164.825 286.498 164.648 288.92 165.979 290.894C166.535 291.705 167.144 292.478 167.803 293.208C173.495 299.683 179.632 305.754 186.167 311.377C187.63 312.625 189.162 313.372 191.07 312.503C193.096 311.582 193.926 309.883 193.94 307.75C193.94 306.103 193.412 304.563 192.793 303.059C191.056 298.889 188.877 294.938 186.744 290.963C186.014 289.598 184.659 288.149 184.954 286.759C185.25 285.369 187.303 285.108 188.429 284.146C189.555 283.183 190.809 282.756 192.251 283.42C193.092 283.809 193.808 283.461 194.545 283.072C196.904 281.846 199.284 280.657 201.644 279.424C202.45 279.003 202.832 279.121 202.776 280.094C202.752 280.501 202.776 280.904 202.776 281.31V369.673C202.776 370.021 202.776 370.368 202.776 370.716C202.815 371.567 202.453 371.949 201.567 372.022C196.327 372.453 191.087 372.901 185.854 373.412C184.464 373.548 183.794 373.11 183.464 371.675C181.799 364.409 180.031 357.168 178.293 349.919C172.328 325.017 166.361 300.115 160.392 275.212C159.443 271.248 158.515 267.272 157.487 262.915C167.146 266.692 176.928 266.991 186.886 267.036ZM228.236 229.71H111.898C109.987 229.71 108.076 229.679 106.168 229.71C105.126 229.71 104.709 229.28 104.726 228.255C104.758 226.343 104.726 224.432 104.726 222.525C104.726 219.769 104.726 219.769 107.44 219.769H304.854C318.457 219.769 332.057 219.769 345.657 219.741C347.047 219.741 347.704 220.176 348.121 221.521C348.792 223.668 349.678 225.753 350.553 227.831C351.346 229.735 351.391 229.714 349.25 229.714L228.236 229.71ZM156.632 218.265C144.47 218.265 132.336 218.24 120.192 218.292C118.438 218.292 118.264 217.146 118.014 215.961C116.822 210.301 116.23 204.531 116.248 198.747C116.272 183.009 116.272 167.273 116.248 151.539C116.236 149.575 116.323 147.612 116.509 145.656C117.551 135.51 125.14 126.611 135.071 124.214C140.832 122.824 146.708 123.741 152.532 123.564C153.518 123.533 153.522 124.342 153.532 125.058C153.558 127.314 153.582 129.571 153.605 131.827C153.605 132.803 153.981 133.964 153.574 134.711C153.025 135.722 151.659 134.975 150.683 135.236C150.461 135.295 150.231 135.329 150.009 135.392C145.461 136.619 141.096 138.297 137.153 140.899C133.518 143.297 130.822 146.435 129.71 150.771C128.972 153.567 128.563 156.439 128.49 159.33C128.329 164.708 128.689 170.088 129.567 175.397C131.183 184.64 132.958 193.848 137.132 202.361C141.169 210.558 147.347 216.26 156.621 218.265H156.632ZM376.781 260.389C374.734 259.114 373.497 257.557 372.1 256.195C362.395 246.74 354.977 235.75 350.14 223.07C347.739 216.774 346.481 210.179 345.247 203.591C343.302 193.205 341.116 182.854 339.976 172.318C339.73 170.032 339.538 167.693 340.192 165.424C340.706 163.645 341.665 163.218 343.34 163.975C344.659 164.58 345.866 165.402 346.912 166.408C352.217 171.409 356.78 177.142 360.463 183.434C367.298 195.151 371.416 207.858 374.015 221.1C375.505 228.699 376.412 236.401 376.729 244.138C376.958 249.464 376.781 254.777 376.781 260.389ZM144.06 324.147C141.628 323.966 138.956 324.981 137.298 322.278C137.264 322.23 137.219 322.19 137.169 322.16C137.118 322.131 137.062 322.111 137.003 322.104C134.512 321.989 134.456 320.113 134.223 318.327C133.893 315.547 133.181 312.906 130.801 311.19C129.564 310.304 129.56 309.39 129.873 308.097C133.007 295.234 136.114 282.363 139.192 269.486C140.235 265.212 141.242 260.938 142.319 256.678C142.431 256.233 142.458 255.09 143.178 255.583C144.762 256.671 146.757 257.203 147.347 259.635C155.328 293.032 163.364 326.421 171.455 359.801C172.497 364.072 173.474 368.353 174.513 372.623C174.77 373.666 174.801 374.434 173.359 374.461C172.031 374.506 170.707 374.622 169.391 374.809C168.001 374.983 167.49 374.409 167.216 373.051C164.579 359.961 161.934 346.872 159.141 333.814C158.192 329.377 155.346 326.374 151.024 324.835C148.744 324.012 146.371 324.123 144.06 324.147ZM74.8157 406.825H66.313C66.1393 406.825 65.9656 406.818 65.7919 406.804C63.092 406.638 60.757 404.768 60.3921 402.242C60.2379 400.856 60.2379 399.458 60.3921 398.072C61.0349 390.08 61.7334 382.089 62.3936 374.069C62.8974 367.908 63.363 361.744 63.8633 355.583C64.5236 347.525 65.2811 339.474 65.844 331.409C66.2227 325.933 66.4451 325.603 71.9803 325.634C74.8192 325.634 75.5246 326.256 76.0875 328.994C78.9206 342.747 81.7583 356.497 84.6006 370.243C86.4677 379.296 88.3313 388.35 90.1914 397.405C91.4041 403.274 86.9217 407.173 82.4463 406.843C79.9166 406.676 77.3593 406.829 74.8157 406.825ZM144.769 231.166H145.374C149.015 231.166 148.424 230.965 149.196 234.193C153.303 251.282 157.348 268.384 161.437 285.477C167.794 312.017 174.164 338.553 180.548 365.087C181.504 369.079 182.418 373.078 183.384 377.068C183.644 378.159 183.446 378.753 182.175 378.621C181.601 378.562 181.018 378.621 180.437 378.621C177.032 378.572 177.539 379.072 176.723 375.691C169.602 346.246 162.507 316.795 155.437 287.336C152.163 273.733 148.885 260.131 145.603 246.528C145.412 245.75 145.565 244.443 144.512 244.409C143.459 244.374 143.56 245.649 143.358 246.427C142.695 249.002 142.087 251.591 141.461 254.176C138.832 265.075 136.203 275.976 133.573 286.877C131.906 293.788 130.266 300.71 128.57 307.614C128.122 309.449 126.93 309.723 125.637 308.344C125.199 307.871 124.8 307.274 124.188 307.156C122.416 306.808 122.52 305.797 122.861 304.376C128.445 281.22 133.959 258.047 139.54 234.881C140.592 230.565 139.442 231.253 144.769 231.166ZM381.437 259.548C381.298 259.35 381.187 259.263 381.18 259.169C381.143 258.766 381.129 258.361 381.138 257.957C381.524 245.229 385.575 233.87 393.713 223.991C401.396 214.665 410.937 208.007 422.244 203.838C424.779 202.842 427.465 202.285 430.187 202.191C432.272 202.156 432.755 202.934 431.925 204.734C431.191 206.182 430.304 207.547 429.28 208.806C425.198 214.14 420.653 219.071 416.125 224.019C406.014 235.065 395.749 245.962 384.991 256.39C383.869 257.484 382.844 258.745 381.437 259.548ZM212.936 323.174V333.067C212.936 345.27 212.912 357.473 212.957 369.68C212.957 371.136 212.665 371.796 211.029 371.626C209.477 371.459 207.911 371.459 206.359 371.626C204.194 371.862 204.145 371.789 204.145 369.614C204.145 353.71 204.284 337.803 204.197 321.899C204.121 308.021 204.132 294.139 204.145 280.261C204.145 278.826 204.58 277.989 205.883 277.481C207.499 276.849 209.069 276.091 210.654 275.396C212.895 274.403 212.916 274.41 212.916 276.859C212.927 292.287 212.934 307.725 212.936 323.174ZM394.405 279.191C390.398 280.404 386.257 281.123 382.076 281.331C366.339 282.28 352.489 277.235 340.081 267.811C337.728 266.029 335.504 264.058 334.034 261.424C332.919 259.426 333.607 257.811 335.803 257.387C337.099 257.093 338.422 256.93 339.75 256.9C352.093 256.994 363.816 259.645 374.87 265.205C382.007 268.794 388.355 273.471 394.405 279.191ZM334.462 264.715C336.081 266.181 337.422 267.45 338.826 268.648C339.151 268.887 339.392 269.222 339.517 269.605C339.642 269.989 339.643 270.401 339.521 270.785C338.18 276.227 336.856 281.671 335.549 287.117C335.378 287.91 335.006 288.646 334.469 289.254C332.692 291.157 331.102 293.227 329.722 295.435C327.794 298.663 325.917 301.961 325.765 305.86C325.671 308.236 326.387 309.199 328.729 309.536C330.039 309.723 330.004 310.231 329.771 311.245C324.675 332.314 319.591 353.384 314.52 374.454C313.287 379.538 314.416 378.412 309.19 378.624C307.54 378.697 307.258 378.207 307.633 376.65C311.083 362.441 314.494 348.222 317.867 333.995C322.361 315.217 326.851 296.439 331.338 277.662C332.335 273.423 333.378 269.17 334.462 264.715ZM189.607 264.924C189.044 265.525 188.492 265.379 187.991 265.382C184.35 265.382 180.694 265.504 177.067 265.354C170.768 265.124 164.542 263.939 158.599 261.841C157.744 261.536 157.094 261.147 156.861 260.135C154.702 250.971 152.518 241.814 150.308 232.664C150.006 231.417 150.471 231.177 151.594 231.198C154.373 231.253 157.153 231.219 159.933 231.198C162.542 231.198 162.542 231.198 163.084 233.658C163.272 234.502 163.456 235.35 163.647 236.194C165.92 246.132 171.337 253.916 179.857 259.475C182.901 261.497 186.257 263.082 189.607 264.924ZM329.858 308.129C327.704 308.17 326.89 307.27 327.148 305.425C327.429 303.538 328.007 301.708 328.861 300.001C334.191 289.08 342.912 282.176 354.369 278.517C355.038 278.327 355.755 278.395 356.377 278.708C358.943 279.762 361.595 280.593 364.303 281.192C365.582 281.474 365.766 281.849 364.869 282.836C362.784 285.143 360.783 287.558 358.615 289.817C351.748 297.058 343.498 302.847 334.354 306.843C332.931 307.503 331.414 307.937 329.858 308.129ZM209.33 152.884C208.134 152.043 207.377 150.903 206.588 149.85C203.065 145.142 198.798 141.33 193.53 138.672C186.678 135.215 179.284 134.502 171.782 134.464C168.401 134.464 168.401 134.464 167.959 131.163C167.954 131.047 167.941 130.931 167.921 130.816C167.574 129.631 167.82 129.263 169.2 129.426C173.144 129.857 173.915 129.249 174.985 125.437C175.062 125.159 175.177 124.888 175.225 124.603C175.354 123.832 175.844 123.526 176.57 123.561C180.774 123.675 184.982 123.265 189.173 124.235C201.532 127.067 210.796 140.055 209.33 152.884ZM325.341 213.584C326.081 213.532 326.421 213.497 326.762 213.487C329.462 213.421 329.472 213.424 330.323 210.832C332.225 205.064 334.12 199.295 336.008 193.524C337.224 189.818 338.445 186.112 339.671 182.405C340.068 183.576 340.359 184.779 340.543 186.002C342.509 196.214 344.049 206.503 346.648 216.6C346.978 217.882 346.63 218.289 345.373 218.272C342.94 218.233 340.508 218.272 338.076 218.272H327.95C328.746 216.993 329.535 215.839 328.968 214.665C328.322 213.327 326.717 214.474 325.341 213.584ZM259.182 259.798C259.502 259.64 259.834 259.508 260.176 259.402C270.766 257.317 281.371 255.274 291.768 252.31C292.831 252.004 293.095 252.435 293.262 253.314C293.787 256.094 294.249 258.874 294.158 261.734C294.085 264.104 292.89 265.358 290.482 265.365C282.74 265.393 274.995 265.365 267.25 265.365C266.618 265.365 265.964 265.407 265.457 264.906C263.551 262.991 261.447 261.284 259.182 259.812V259.798ZM346.488 231.201C347.416 231.201 348.34 231.219 349.268 231.201C350.195 231.184 350.616 231.51 350.831 232.435C352.685 240.311 354.577 248.176 356.509 256.032C356.773 257.105 356.363 257.251 355.467 257.074C354.172 256.778 352.861 256.556 351.54 256.41C350.317 256.317 349.845 255.691 349.594 254.604C348.899 251.619 348.184 248.644 347.443 245.673C347.311 245.142 347.284 244.367 346.557 244.343C345.696 244.311 345.717 245.145 345.567 245.733C345.088 247.637 344.625 249.555 344.177 251.459C343.305 255.083 343.305 255.08 339.66 255.417C339.313 255.448 338.965 255.524 338.618 255.566C336.821 255.785 336.654 255.615 337.068 253.881C338.555 247.645 340.048 241.406 341.547 235.166C342.687 230.405 341.804 231.323 346.488 231.201ZM220.313 378.6H216.324C206.549 378.6 196.774 378.6 187.001 378.6C186.167 378.6 185.302 378.774 184.941 377.557C184.225 375.125 184.416 374.851 186.973 374.649C192.158 374.242 197.331 373.749 202.512 373.336C205.678 373.082 208.843 372.693 212.03 372.988C223.475 374.007 234.921 375.031 246.367 376.06C249.012 376.291 251.659 376.523 254.307 376.755C254.838 376.8 255.405 376.796 255.401 377.544C255.398 378.291 255.026 378.586 254.321 378.61C253.973 378.61 253.626 378.61 253.278 378.61L220.313 378.6ZM286.114 379.295C283.286 379.514 280.006 379.111 276.733 378.895C273.834 378.759 271.006 377.957 268.466 376.553C267.504 376.008 267.153 375.365 267.365 374.312C267.782 372.227 268.164 370.115 268.57 368.019C269.022 365.709 269.067 365.639 271.003 366.841C273.995 368.711 276.997 369.072 280.162 367.314C281 366.848 283.401 367.529 283.72 368.356C284.179 369.513 282.9 369.652 282.407 370.254C282.365 370.293 282.319 370.329 282.271 370.361C281.903 370.709 281.333 371.087 281.74 371.643C282.146 372.199 282.667 371.8 283.091 371.491C283.884 370.914 284.641 370.281 285.468 369.753C286.639 369.003 287.779 369.722 288.415 370.448C289.051 371.174 287.685 371.317 287.338 371.838C286.99 372.359 285.85 372.693 286.441 373.426C287.136 374.284 287.702 373.197 288.31 372.887C289.252 372.411 289.912 370.976 291.09 371.424C294.69 372.814 298.387 374.041 301.459 376.525C301.806 376.81 302.293 377.134 302.206 377.623C302.088 378.266 301.435 378.211 300.941 378.294C296.041 379.069 291.081 379.404 286.121 379.295H286.114ZM371.6 345.645C371.371 344.971 371.252 344.711 371.193 344.44C369.751 338.376 368.33 332.306 366.874 326.242C364.233 315.239 361.581 304.236 358.917 293.232C358.743 292.537 358.636 291.888 359.195 291.3C360.661 289.761 362.11 288.211 363.681 286.543C363.803 286.929 363.879 287.131 363.931 287.339C366.054 296.151 368.101 304.98 370.328 313.747C371.454 318.198 372.392 322.639 371.913 327.25C371.52 330.999 371.659 334.752 371.607 338.508C371.562 340.76 371.6 342.987 371.6 345.645ZM105.915 314.943C109.737 314.943 113.535 314.963 117.346 314.943C118.504 314.943 118.917 315.29 118.577 316.492C118.048 318.379 117.59 320.29 117.239 322.219C116.975 323.671 116.315 324.21 114.806 324.185C109.091 324.102 103.371 324.161 97.6552 324.151C95.8136 324.151 93.7843 324.647 92.6515 322.472C92.5852 322.376 92.4987 322.294 92.3979 322.234C92.2971 322.174 92.1845 322.137 92.0678 322.125C89.7328 322.034 89.7501 320.283 89.4374 318.629C89.1247 316.975 89.0448 315.533 90.2331 314.241C90.803 313.615 91.3972 313.299 92.1268 314.07C92.8565 314.842 93.8295 314.956 94.8406 314.953C98.5204 314.943 102.217 314.943 105.915 314.943ZM174.853 115.572C175.127 115.977 175.422 116.368 175.736 116.743C176.702 117.765 176.834 118.585 175.295 119.175C174.419 119.505 174.485 120.367 174.405 121.093C174.243 122.82 173.88 124.521 173.324 126.163C172.755 127.751 171.65 128.46 169.968 128.182C167.285 127.741 164.62 127.212 162.125 126.097C159.336 124.886 157.112 122.66 155.902 119.87C155.662 119.335 155.207 118.63 156.038 118.206C157.754 117.341 157.428 116.267 156.569 114.957C155.711 113.647 156.055 112.389 156.934 111.256C157.813 110.124 158.922 110.214 159.669 111.517C160.127 112.385 160.432 113.325 160.569 114.297C160.676 114.915 160.847 115.576 161.677 115.642C162.508 115.708 162.72 115.075 162.945 114.474C163.171 113.873 163.192 113.084 163.894 112.924C165.451 112.577 167.021 112.862 168.519 113.272C169.62 113.585 168.998 114.776 169.155 115.565C169.447 117.025 170.017 118.317 171.587 118.585C173.095 118.842 173.856 117.713 174.457 116.528C174.582 116.274 174.68 116.003 174.853 115.572ZM253.535 168.697C253.045 165.424 252.614 162.419 252.145 159.42C251.992 158.468 252.555 158.534 253.17 158.534C257.503 158.534 261.857 158.558 266.176 158.516C267.194 158.516 267.469 158.791 267.302 159.826C266.802 162.905 266.385 165.994 265.978 169.083C265.756 170.793 265.11 172.117 263.477 172.957C262.514 173.451 261.77 174.33 261.131 175.23C258.205 179.358 258.716 182.211 262.868 184.911C263.216 185.14 263.609 185.31 263.49 185.814C263.443 186.048 263.309 186.256 263.117 186.397C262.924 186.539 262.686 186.603 262.448 186.578C260.829 186.578 259.21 186.554 257.583 186.617C256.478 186.662 256.009 186.127 255.874 185.119C255.637 183.403 255.38 181.693 255.141 179.976C254.734 177.099 254.748 177.124 257.225 175.675C259.703 174.226 260.603 171.853 260.61 169.135C260.633 168.4 260.404 167.679 259.962 167.09C259.52 166.502 258.89 166.082 258.178 165.9C256.572 165.407 255.363 166.05 254.428 167.346C254.175 167.707 253.938 168.086 253.535 168.697ZM183.752 294.442C184.621 294.442 185.49 294.4 186.355 294.442C187.376 294.504 187.745 295.39 187.814 296.134C187.922 297.037 186.949 296.829 186.407 296.943C185.618 297.096 184.795 297.065 183.995 297.183C183.547 297.249 183.009 297.405 183.095 298.02C183.182 298.636 183.742 298.618 184.193 298.583C185.288 298.493 186.376 298.344 187.47 298.236C188.103 298.18 188.836 298.073 189.208 298.74C190.74 301.589 192.363 304.414 192.47 307.774C192.47 308.156 192.599 308.664 192.151 308.858C191.702 309.053 191.435 308.594 191.15 308.337C183.71 301.742 176.682 294.696 170.107 287.238C168.279 285.154 168.276 285.154 170.277 283.249C170.864 282.693 171.497 282.186 172.112 281.661C174.388 279.712 174.544 279.653 175.566 282.402C176.785 285.668 178.617 287.812 182.421 287.45C183.116 287.384 183.617 287.756 183.929 288.399C184.482 289.542 185.052 290.682 185.642 291.808C186.025 292.544 185.823 292.867 185.007 292.913C183.853 292.979 182.703 293.086 181.532 293.18C181.07 293.218 180.521 293.229 180.562 293.875C180.597 294.407 181.091 294.417 181.494 294.428C182.251 294.442 183.002 294.442 183.752 294.442ZM218.541 202.361C214.285 201.853 210.581 201.426 206.88 200.971C206.566 200.905 206.269 200.773 206.009 200.584C205.749 200.396 205.532 200.155 205.372 199.876C200.605 192.979 196.213 185.936 194.235 177.69C194.01 176.735 193.54 175.775 193.822 174.389C196.254 177.516 198.44 180.404 200.709 183.232C204.093 187.419 207.787 191.308 212.78 193.674C213.103 193.792 213.387 193.998 213.6 194.268C215.077 196.86 216.456 199.505 218.541 202.361ZM228.997 216.173C227.711 216.308 226.217 214.863 224.358 215.009C223.208 215.103 222.138 214.661 221.832 213.372C221.526 212.083 222.012 210.971 223.152 210.245C225.932 208.483 228.712 206.77 231.492 205.002C231.819 204.764 232.203 204.617 232.605 204.577C233.008 204.536 233.414 204.604 233.781 204.772C235.748 205.624 237.847 206.051 239.897 206.638C242.844 207.483 245.776 208.376 248.264 210.262C249.723 211.364 249.55 212.521 247.858 213.233C247.331 213.469 246.766 213.606 246.19 213.636C244.289 213.671 242.367 213.827 240.491 213.542C238.91 213.303 237.558 213.598 236.127 214.109C233.976 214.87 231.915 216.023 228.997 216.173ZM155.124 121.524C157.358 125.27 159.353 126.802 164.471 128.39C165.673 128.762 166.267 129.304 166.445 130.611C166.816 133.349 167.31 136.08 167.907 138.776C168.255 140.371 167.654 141.209 166.257 141.688C163.513 142.643 160.546 142.756 157.737 142.011C155.506 141.431 155.131 140.969 155.127 138.648C155.124 132.883 155.124 127.119 155.124 121.524ZM107.951 308.021C112.572 308.021 117.194 307.993 121.815 308.021C124.015 308.021 125.06 309.348 124.942 312.079C124.855 314.008 123.257 313.626 122.051 313.629C113.385 313.65 104.719 313.65 96.0533 313.629C95.5339 313.653 95.0135 313.637 94.4966 313.58C92.9261 313.327 92.0643 311.76 92.1894 309.452C92.2659 307.715 93.5793 308.021 94.6217 308.014C99.0659 307.993 103.514 308.024 107.961 308.021H107.951ZM372.253 315.637C372.083 315.141 371.968 314.883 371.906 314.616C369.691 305.35 367.481 296.084 365.276 286.818C364.609 284.01 366.617 281.821 369.491 282.21C370.568 282.417 371.663 282.526 372.76 282.534C374.553 282.443 374.918 283.291 374.731 284.862C373.525 295.018 372.955 305.213 372.253 315.637ZM395.454 219.769C392.747 222.841 390.329 225.628 388.435 228.804C388.284 229.084 388.057 229.317 387.78 229.473C387.502 229.63 387.186 229.705 386.868 229.69C383.921 229.69 380.976 229.69 378.032 229.69C377.212 229.69 376.795 229.342 376.666 228.473C376.294 226.02 375.888 223.574 375.419 221.138C375.221 220.096 375.585 219.748 376.562 219.748C382.719 219.776 388.908 219.769 395.454 219.769ZM135.196 246.872C130.933 242.643 127.299 237.824 124.404 232.563C123.886 231.639 124.008 231.208 125.172 231.215C129.325 231.243 133.479 231.243 137.632 231.215C138.549 231.215 138.883 231.524 138.654 232.469C137.507 237.157 136.392 241.855 135.193 246.869L135.196 246.872ZM375.971 363.763C374.095 356.813 372.364 350.027 372.806 342.841C373.132 337.497 372.868 332.118 372.868 326.757L373.344 326.718C373.447 326.971 373.536 327.228 373.612 327.49C374.883 332.82 376.096 338.164 377.434 343.474C377.944 345.531 378.029 347.671 377.684 349.763C376.989 354.381 376.531 359.03 375.968 363.759L375.971 363.763ZM282.25 383.458C279.471 383.666 276.691 383.332 273.935 383.086C271.798 382.898 269.7 382.464 267.921 381.105C267.201 380.553 266.625 379.924 266.621 378.968C266.621 377.877 266.882 377.266 268.157 377.988C269.873 378.97 271.759 379.617 273.717 379.896C282.751 381.175 291.813 380.904 300.847 379.729C301.494 379.646 302.352 379.107 302.689 379.979C303.054 380.914 302.387 381.64 301.567 382.064C301.1 382.291 300.596 382.431 300.079 382.478C294.141 383.093 288.206 383.315 282.247 383.454L282.25 383.458ZM244.376 178.861C244.376 176.665 245.109 175.668 247.295 174.928C250.728 173.76 253.758 172.103 255.321 168.555C255.763 167.561 256.597 167.05 257.729 167.346C258.862 167.641 259.182 168.569 259.157 169.629C259.081 172.985 256.822 174.608 254.129 175.821C253.25 176.217 252.858 176.495 253.271 177.596C254.119 179.844 253.886 180.227 251.68 181.304C250.901 181.691 250.103 182.039 249.289 182.346C246.065 183.521 244.376 182.318 244.369 178.858L244.376 178.861ZM337.749 285.987L337.367 285.713C338.513 280.963 339.667 276.213 340.793 271.466C340.987 270.653 341.321 270.556 341.978 271.015C345.566 273.505 349.377 275.659 353.361 277.45C347.478 279.479 342.127 281.849 337.749 285.987ZM166.59 288.131C166.625 287.544 166.59 286.717 167.202 286.484C167.963 286.192 168.126 287.134 168.519 287.568C172.921 292.461 177.362 297.322 182.123 301.871C184.791 304.421 187.557 306.864 190.257 309.383C190.639 309.73 191.431 310.047 191.035 310.724C190.85 311.059 190.549 311.317 190.189 311.448C189.829 311.58 189.434 311.577 189.075 311.44C188.48 311.22 187.927 310.898 187.442 310.488C180.239 304.426 173.568 297.758 167.504 290.557C166.918 289.885 166.593 289.024 166.59 288.131ZM270.833 174.462C270.537 178.107 268.345 180.605 265.322 182.471C264.244 183.138 263.212 182.76 262.514 181.641C261.069 179.33 261.239 177.655 263.157 175.668C263.641 175.093 264.176 174.562 264.755 174.083C266.239 173.013 267.212 171.72 267.32 169.809C267.399 168.402 268.254 168.944 268.862 169.389C270.52 170.619 270.676 172.478 270.808 174.462H270.833ZM378.862 351.257L379.269 351.222C380.69 357.168 382.097 363.113 383.543 369.051C383.779 370.014 383.428 370.337 382.531 370.33C381.319 370.33 380.099 370.281 378.893 370.351C377.788 370.417 377.43 369.816 377.111 368.891C376.597 367.404 377.291 366.046 377.42 364.638C377.795 360.17 378.344 355.715 378.838 351.257H378.862ZM181.532 285.939C180.635 285.956 179.794 285.862 179.047 285.317C177.477 284.17 177.035 282.342 176.556 280.678C176.236 279.566 177.817 279.226 178.491 278.492C179.113 277.818 179.902 277.301 180.576 276.682C181.087 276.223 181.48 276.029 181.945 276.765C183.338 278.909 185.305 280.618 187.623 281.696C187.998 281.88 188.697 282.217 188.005 282.648C185.948 283.93 184.242 285.956 181.532 285.939ZM121.648 324.133C121.127 324.133 120.606 324.095 120.092 324.133C118.601 324.258 118.104 323.765 118.608 322.229C119.112 320.693 119.372 319.102 119.748 317.535C120.376 314.943 120.376 314.943 123 314.943C124.042 314.943 125.085 314.942 125.877 314.088C126.106 313.838 126.367 313.487 126.739 313.709C127.208 313.99 126.902 314.439 126.819 314.8C126.311 316.986 125.811 319.175 125.258 321.35C124.494 324.359 125.064 324.119 121.641 324.133H121.648ZM309.319 188.841C309.28 186.808 311 184.775 312.793 184.733C314.326 184.702 315.921 186.356 315.997 188.031C316.074 190.036 314.378 192.062 312.561 192.135C310.743 192.208 309.357 190.814 309.319 188.841ZM276.184 367.133C274.311 367.078 272.917 366.39 271.611 365.51C270.829 364.979 270.853 364.041 270.985 363.301C271.117 362.56 271.958 362.904 272.48 362.904C274.329 362.892 276.174 362.733 277.997 362.428C278.387 362.366 278.8 362.203 279.113 362.616C280.155 363.971 279.304 366.403 277.64 366.841C277.087 366.987 276.514 367.064 276.184 367.133ZM126.224 323.379C126.85 320.818 127.434 318.244 128.122 315.7C128.354 314.845 128.879 315.224 129.22 315.7C130.335 317.274 130.401 319.133 130.564 320.954C130.577 321.13 130.525 321.305 130.418 321.446C130.311 321.587 130.157 321.685 129.984 321.722C129.425 321.857 128.9 322.106 128.442 322.454C127.984 322.803 127.603 323.242 127.322 323.744C127.247 323.87 127.134 323.968 126.999 324.026C126.864 324.083 126.715 324.096 126.572 324.064C126.148 323.998 126.259 323.675 126.224 323.379ZM172.251 378.628H169.308C168.324 378.628 168.265 377.884 168.151 377.203C168.029 376.432 168.623 376.393 169.144 376.334C170.805 376.14 172.463 375.924 174.127 375.785C175.58 375.66 175.587 376.855 175.736 377.78C175.938 379.045 174.902 378.569 174.329 378.628C173.636 378.657 172.943 378.651 172.251 378.61V378.628ZM286.507 213.925V213.629H315.233C315.233 213.73 315.233 213.827 315.233 213.925H286.507ZM86.3623 315.457C86.5325 313.417 87.29 311.815 89.1108 310.894C89.6389 310.627 90.32 310.092 90.8065 310.815C91.2929 311.537 90.6814 312.048 90.0907 312.472C89.3206 312.988 88.7073 313.706 88.3181 314.548C87.929 315.389 87.7788 316.322 87.8842 317.243C87.9606 318.212 88.1205 319.178 88.2108 320.148C88.2456 320.495 88.2108 320.912 87.7973 320.982C87.3839 321.051 87.224 320.634 87.1684 320.308C86.8661 318.66 86.609 317.027 86.3518 315.446L86.3623 315.457ZM133.066 319.974C132.945 320.301 133.316 320.992 132.674 321.062C132.031 321.131 131.979 320.384 131.92 319.915C131.572 316.44 130.443 313.49 126.888 312.076C126.775 312.041 126.671 311.983 126.582 311.904C126.494 311.826 126.423 311.73 126.374 311.622C126.326 311.514 126.301 311.397 126.302 311.279C126.302 311.16 126.328 311.044 126.377 310.936C126.652 310.283 127.19 310.693 127.573 310.815C128.66 311.216 129.639 311.866 130.432 312.712C132.475 314.675 132.611 317.319 133.056 319.957L133.066 319.974ZM346.488 247.852C347.089 250.284 347.596 252.369 348.1 254.433C348.204 254.864 348.562 255.504 348.041 255.67C347.11 255.966 346.085 255.795 345.161 255.521C344.615 255.361 344.844 254.753 344.949 254.305C345.435 252.289 345.911 250.271 346.488 247.852ZM170.413 114.71C170.632 113.529 170.666 112.337 171.764 111.621C171.907 111.521 172.083 111.478 172.256 111.501C172.429 111.524 172.587 111.612 172.699 111.746C173.083 112.175 173.349 112.696 173.471 113.258C173.593 113.82 173.566 114.405 173.394 114.954C173.289 115.396 173.142 115.828 172.956 116.243C172.723 116.726 172.362 117.091 171.747 117.018C171.517 116.988 171.302 116.889 171.13 116.735C170.958 116.58 170.836 116.377 170.781 116.152C170.642 115.669 170.545 115.162 170.413 114.71ZM227.718 218.112C227.843 217.587 228.128 217.532 228.413 217.57C230.328 217.813 232.068 217.174 233.806 216.527C235.998 215.718 235.995 215.707 237.117 218.108L227.718 218.112ZM146.253 255.469C143.199 254.406 142.966 254.009 143.626 251.257C143.869 250.243 144.123 249.228 144.47 247.821L146.253 255.469Z" fill="#2E2A26"></path><path d="M406.135 265.057C404.822 268.021 403.331 270.756 402.254 273.678C401.177 276.6 400.211 279.585 399.415 282.591C398.97 284.276 399.255 284.613 401.069 284.676C414.659 285.134 425.973 280.569 434.427 269.62C438.916 263.81 443.46 258.042 448.058 252.315C454.055 244.883 460.588 237.94 467.343 231.199C468.373 230.187 469.295 229.07 470.095 227.867C471.196 226.178 470.55 224.74 468.604 224.163C466.134 223.433 463.653 223.77 461.217 224.26C448.965 226.717 438.113 232.221 428.165 239.643C423.27 243.242 418.836 247.428 414.961 252.107C414.702 252.481 414.335 252.768 413.91 252.93C413.485 253.093 413.02 253.123 412.577 253.017C399.888 251.019 389.491 255.769 380.332 264.088C379.957 264.435 379.439 264.783 379.759 265.391C380.078 265.999 380.7 265.923 381.284 265.975C389.387 266.67 397.448 266.479 405.458 264.96C405.686 264.97 405.913 265.003 406.135 265.057ZM404.78 283.185C403.912 283.185 403.043 283.143 402.178 283.185C401.031 283.255 400.788 282.813 401.09 281.736C404.301 270.311 409.6 259.998 417.602 251.197C427.404 240.425 439.343 232.78 453.044 227.898C457.461 226.321 461.974 225.049 466.752 225.303C467.603 225.348 468.667 225.303 469.025 226.21C469.344 227.033 468.597 227.718 468.052 228.295C465.783 230.685 463.51 233.072 461.189 235.407C450.886 245.793 442.137 257.441 433.151 268.893C425.865 278.185 416.459 282.831 404.78 283.185ZM381.725 264.498C382.379 264.025 382.67 263.838 382.935 263.619C387.657 259.696 392.872 256.669 398.811 255.005C402.836 253.924 407.037 253.657 411.167 254.22C412.348 254.366 413.036 254.567 411.966 255.957C410.544 257.849 409.232 259.821 408.036 261.864C407.48 262.781 406.844 263.341 405.781 263.515C398.008 264.786 390.225 265.516 381.725 264.498Z" fill="#2E2A26"></path><path d="M458.253 320.785C458.854 320.688 459.486 320.615 460.105 320.483C462.19 320.038 462.857 318.85 462.19 316.775C461.61 314.979 460.543 313.457 459.327 312.06C449.691 301.024 437.898 293.296 423.86 289.047C416.351 286.764 408.668 285.527 400.857 284.978C400.277 284.936 399.627 284.835 399.28 285.412C398.891 286.052 399.471 286.489 399.829 286.906C409.628 298.297 421.25 307.296 434.986 313.478C441.272 316.313 447.648 318.881 454.445 320.261C455.689 320.5 456.957 320.611 458.253 320.785ZM401.378 286.479C402.115 286.479 402.421 286.455 402.682 286.479C409.006 287.157 415.284 288.067 421.445 289.797C433.103 293.085 443.478 298.679 452.381 306.949C455.299 309.659 458.152 312.46 460.275 315.872C461.752 318.245 461.147 319.27 458.382 319.295C455.508 319.319 452.759 318.6 450.042 317.766C436.518 313.596 424.148 307.244 413.21 298.206C408.913 294.67 404.953 290.744 401.378 286.479Z" fill="#2E2A26"></path><path d="M400.93 317.657C400.583 310.502 399.797 302.347 398.644 294.23C398.553 293.587 398.796 292.635 397.949 292.423C397.101 292.211 396.715 293.139 396.267 293.695C390.874 300.394 389.498 307.941 391.51 316.211C392.178 318.969 393.286 321.602 394.79 324.008C395.338 324.963 396.055 325.809 396.906 326.507C398.452 327.674 399.634 327.396 400.232 325.558C400.961 323.341 400.975 321.013 400.93 317.657ZM397.014 294.932C397.405 295.558 397.618 296.279 397.632 297.017C397.945 299.824 398.282 302.632 398.591 305.443C399.224 311.246 399.617 317.059 399.377 322.9C399.34 323.476 399.257 324.047 399.127 324.61C398.88 325.763 398.279 325.944 397.466 325.099C396.899 324.525 396.391 323.897 395.947 323.223C394.109 320.363 393.07 317.191 392.434 313.876C391.1 306.951 392.796 300.748 397.014 294.932Z" fill="#2E2A26"></path><path d="M319.382 402.098C328.6 402.046 337.756 400.676 346.624 397.58C347.319 397.341 348.639 397.33 348.33 396.326C348.021 395.322 346.94 396.027 346.245 396.267C335.379 400.089 324.163 401.132 312.759 400.437C307.926 400.138 303.12 399.394 298.297 398.922C297.415 398.835 295.952 398.15 295.771 399.38C295.625 400.385 297.182 400.228 298.026 400.326C305.066 401.114 312.106 402.087 319.382 402.098Z" fill="#2E2A26"></path><path d="M198.304 201.701C198.763 201.662 199.441 201.815 199.472 201.072C199.503 200.328 198.777 200.328 198.318 200.276C195.681 199.96 193.033 199.755 190.396 199.435C180.114 198.184 170.277 195.717 162.007 188.98C156.601 184.577 153.091 178.903 150.655 172.454C150.555 172.183 150.482 171.901 150.377 171.634C150.193 171.161 149.905 170.782 149.335 171.008C148.831 171.21 148.932 171.703 149.057 172.051C149.481 173.309 149.898 174.58 150.447 175.789C155.527 187.187 164.308 194.272 176.101 197.934C183.332 200.189 190.802 200.884 198.304 201.701Z" fill="#2E2A26"></path><path d="M122.374 357.548C111.672 357.548 100.97 357.548 90.2679 357.548C86.814 357.548 86.0322 356.982 85.2087 353.598C83.381 346.075 81.6192 338.535 79.8332 331.012C79.7811 330.786 79.7602 330.553 79.7012 330.317C79.5691 329.803 79.4267 329.198 78.7283 329.368C78.0298 329.538 78.1793 330.16 78.2939 330.664C78.829 332.968 79.3815 335.272 79.9305 337.572C81.2857 343.25 82.6269 348.931 84.0064 354.598C84.7708 357.743 86.4387 359.022 89.7015 359.025C97.3459 359.025 104.99 359.063 112.61 358.997C114.101 358.997 114.81 359.407 115.043 360.929C115.364 362.634 115.783 364.318 116.297 365.975C116.863 367.976 117.882 368.754 119.921 368.754C124.258 368.775 128.597 368.775 132.938 368.754C135.175 368.754 136.367 367.34 135.926 365.137C135.62 363.612 135.123 362.121 134.678 360.62C134.331 359.456 134.592 358.973 135.936 358.987C142.125 359.043 148.317 359.011 154.505 359.011C155.027 359.011 155.548 359.011 156.065 359.011C156.524 358.99 157.108 359.011 157.139 358.396C157.184 357.663 156.528 357.649 156.027 357.604C155.398 357.545 154.759 357.555 154.123 357.552L122.374 357.548ZM126.468 367.479C124.445 367.479 122.42 367.479 120.397 367.479C118.91 367.5 117.965 366.815 117.618 365.394C117.207 363.831 116.891 362.243 116.433 360.693C116.064 359.456 116.433 358.987 117.708 359.008C120.714 359.049 123.719 358.983 126.742 359.032C128.698 359.06 131.04 358.289 132.51 359.348C134.06 360.467 133.865 363.014 134.453 364.929C134.981 366.642 134.383 367.424 132.566 367.462C130.516 367.51 128.493 367.479 126.468 367.479Z" fill="#2E2A26"></path><path d="M130.933 400.488C119.656 400.488 108.381 400.495 97.1064 400.509C96.269 400.509 94.8061 400.043 94.7748 401.204C94.74 402.437 96.2099 401.979 97.0299 401.979C119.641 402.006 142.25 402.006 164.857 401.979C165.732 401.979 167.289 402.444 167.289 401.172C167.289 400.102 165.781 400.516 164.94 400.516C153.601 400.481 142.265 400.472 130.933 400.488Z" fill="#2E2A26"></path><path d="M178.902 224.552C178.902 225.643 178.881 226.731 178.902 227.822C178.902 228.232 179.062 228.642 179.597 228.614C179.768 228.596 179.927 228.515 180.042 228.387C180.157 228.258 180.22 228.092 180.219 227.919C180.405 225.693 180.405 223.454 180.219 221.227C180.22 221.139 180.203 221.051 180.168 220.969C180.132 220.888 180.08 220.816 180.014 220.757C179.948 220.698 179.87 220.653 179.785 220.627C179.701 220.601 179.612 220.594 179.524 220.605C179.349 220.615 179.185 220.694 179.068 220.824C178.951 220.954 178.89 221.125 178.898 221.3C178.874 222.388 178.898 223.479 178.898 224.566L178.902 224.552Z" fill="#2E2A26"></path><path d="M70.8514 362.448C70.8514 372.629 70.8758 382.81 70.8237 392.991C70.8237 394.44 71.2406 395.315 72.5436 396.017C75.7508 397.755 78.8781 399.617 82.0401 401.424C82.537 401.705 83.1589 402.157 83.569 401.507C83.979 400.858 83.2528 400.465 82.7906 400.215C79.6888 398.422 76.5732 396.65 73.4436 394.898C72.6931 394.481 72.1232 394.078 72.1649 393.071C72.5332 383.88 72.2795 374.682 72.3178 365.488C72.3664 354.331 72.3421 343.173 72.3178 332.016C72.3178 331.116 72.7035 329.528 71.6228 329.507C70.2955 329.483 70.8966 331.06 70.8931 331.908C70.8341 342.086 70.8514 352.267 70.8514 362.448Z" fill="#2E2A26"></path><path d="M274.014 135.03H241.245V165.592L251.622 170.504L253.806 168.321L254.352 165.592H257.629L265.275 168.321L274.014 165.592V135.03Z" fill="white"></path><path d="M267.46 186.876L265.822 184.147L263.637 185.239L255.445 177.598L254.899 180.327L253.806 181.964L252.168 197.464L257.356 199.428L258.449 198.555L258.722 197.464H260.36L264.183 198.555L268.552 197.464L267.46 186.876Z" fill="white"></path><path d="M266.54 170.533L265.302 169.823C264.202 169.192 262.992 168.777 261.736 168.598L259.986 168.35" stroke="#2E2A26" stroke-width="1.5"></path><path d="M264.183 184.148L261.938 184.364C259.189 184.629 256.453 183.745 254.379 181.923L253.806 181.42" stroke="#2E2A26" stroke-width="1.5"></path><path d="M265.822 170.507L260.36 168.869L259.268 173.235L254.899 177.056L254.353 180.876L257.629 183.605H261.999L259.814 178.147L265.276 172.144L265.822 170.507Z" fill="#2E2A26"></path></svg>