<svg id="Layer_1" data-name="Layer 1" xmlns="http://www.w3.org/2000/svg" xmlns:xlink="http://www.w3.org/1999/xlink" viewBox="0 0 457.04 344.17"><defs><style>.cls-1{fill:none;}.cls-2{fill:#ccc;}.cls-3{fill:#303030;}.cls-4{fill:#e6e6e6;}.cls-28,.cls-5{fill:#fff;}.cls-6{fill:#b3b3b3;}.cls-16,.cls-17,.cls-7,.cls-9{fill:#30309c;}.cls-15,.cls-7{opacity:0.3;}.cls-8{fill:#4b49ac;}.cls-9{opacity:0.6;}.cls-10{clip-path:url(#clip-path);}.cls-11{fill:#8096a7;}.cls-12{fill:#d48458;}.cls-13{fill:#f29663;}.cls-14{fill:#b7724a;}.cls-17{opacity:0.7;}.cls-18{clip-path:url(#clip-path-2);}.cls-19{fill:#ffaa4b;}.cls-20,.cls-21{opacity:0.16;}.cls-22{fill:#999;}.cls-23{fill:#4c4c4c;}.cls-24{fill:gray;}.cls-25{fill:#c3e2f8;}.cls-26{fill:#daeefb;}.cls-27{fill:#e7f2fb;}.cls-28{opacity:0.72;}</style><clipPath id="clip-path" transform="translate(-137.24 -31.52)"><rect class="cls-1" x="435.95" y="52.53" width="50.44" height="62.58" rx="5"/></clipPath><clipPath id="clip-path-2" transform="translate(-137.24 -31.52)"><rect class="cls-1" x="286.96" y="240.28" width="48.65" height="50.44" rx="5"/></clipPath></defs><ellipse class="cls-2" cx="46.98" cy="310.8" rx="46.98" ry="11.15"/><ellipse class="cls-2" cx="156.9" cy="324.15" rx="80.14" ry="11.08"/><ellipse class="cls-2" cx="329.07" cy="317.2" rx="56.52" ry="26.97"/><ellipse class="cls-2" cx="420.85" cy="266.96" rx="36.19" ry="10.81"/><path class="cls-2" d="M337.4,254.69c0,2.08-22.61,3.77-50.49,3.77s-50.49-1.69-50.49-3.77,22.61-3.76,50.49-3.76S337.4,252.62,337.4,254.69Z" transform="translate(-137.24 -31.52)"/><path class="cls-2" d="M531.92,267.4c0,1.14-22.22,2.06-49.63,2.06s-49.62-.92-49.62-2.06,22.21-2.06,49.62-2.06S531.92,266.26,531.92,267.4Z" transform="translate(-137.24 -31.52)"/><path class="cls-3" d="M557,285.52a16.86,16.86,0,0,1,.78,5.87c-.26,2.73,0,3.52-.78,3.52s-4.44.13-4.83,0-1-2.61-1.69-2,.13,1.81-.78,2-10.57,1.11-13.05,0-2.08-1.62.65-2.53,12.66-4,14.87-6.91S557,285.52,557,285.52Z" transform="translate(-137.24 -31.52)"/><path class="cls-3" d="M560.25,225.13s-6.78,16.17-8.09,19,3.39,3.91,5,19a175.37,175.37,0,0,1,1,24.78s-7.56,1.57-8.09-1c0,0-1-12.78-4.69-20.09s-6.26-13.3-5.74-20.34,7.3-39.91,7.3-39.91l7.83-15.92,8.61,1.31Z" transform="translate(-137.24 -31.52)"/><rect class="cls-4" x="281.19" width="131.01" height="231.89" rx="10"/><rect class="cls-5" x="288.9" y="8.43" width="115.91" height="215.04" rx="10"/><rect class="cls-6" x="357.56" y="64.93" width="33.17" height="2.93"/><rect class="cls-6" x="357.56" y="71.94" width="27.55" height="2.93"/><rect class="cls-2" x="299.16" y="133.76" width="91.78" height="2.93"/><rect class="cls-2" x="299.16" y="149.14" width="86.4" height="2.93"/><rect class="cls-2" x="299.16" y="141.45" width="95.38" height="2.93"/><rect class="cls-2" x="298.71" y="170.78" width="91.78" height="2.93"/><rect class="cls-2" x="298.71" y="184.79" width="95.38" height="2.93"/><rect class="cls-2" x="298.71" y="191.8" width="86.4" height="2.93"/><rect class="cls-2" x="298.71" y="198.8" width="67.88" height="2.93"/><rect class="cls-2" x="298.71" y="205.81" width="74.27" height="2.93"/><rect class="cls-2" x="298.71" y="177.78" width="95.38" height="2.93"/><rect class="cls-7" x="298.71" y="21.02" width="50.44" height="62.58" rx="5"/><rect class="cls-8" x="357.04" y="41.11" width="36.53" height="12.61" rx="4.9"/><rect class="cls-9" x="299.58" y="159.87" width="74.96" height="5.37"/><g class="cls-10"><path class="cls-11" d="M438.63,110.65c0-8.4,10.14-15.22,22.65-15.22s22.65,6.82,22.65,15.22v8.42h-45.3Z" transform="translate(-137.24 -31.52)"/></g><ellipse class="cls-5" cx="323.85" cy="67.56" rx="7.48" ry="2.5"/><path class="cls-12" d="M466.26,98.58s-1.18,1.57-4.78,1.57-4.78-1.57-4.78-1.57V93h9.56Z" transform="translate(-137.24 -31.52)"/><polygon class="cls-13" points="315.27 36.75 314.62 47.62 320.51 52.85 328.37 52.85 333.08 46.96 332.3 35.96 325.88 33.34 318.55 34.13 315.27 36.75"/><path class="cls-13" d="M452.9,73.37s-2.35-3.93-4.45-3.93.26,4.32,2.23,6.16l2,1.83Z" transform="translate(-137.24 -31.52)"/><path class="cls-13" d="M469.73,73.17s2.69-3.71,4.78-3.53-.64,4.28-2.75,5.94l-2.12,1.66Z" transform="translate(-137.24 -31.52)"/><path class="cls-3" d="M451.86,74.62s-2.13,7.66-1.59,9.75.54,9.3,10.82,9.69,10.54-6.29,10.67-9.69-1.44-11.26-1.44-11.26l-1.31.06s2.09,9-7.92,9-7.94-7.52-8.19-9.45c-.14-1.11-1-.8-1-.8Z" transform="translate(-137.24 -31.52)"/><path class="cls-3" d="M451.86,71.89s.26-4.54-.53-5.72-.52-4.06,2.1-5.76,3-1.44,4.32-1.31,6.94.92,8.25.79,4.45-1.18,5.23,4.58-.78,7.2-.91,8.64l-1.31.06s-.92-3.6-2.36-4.25a7.17,7.17,0,0,0-4.71-.79c-1.84.4-2.75,1.18-5.37,1.05s-2.75-.91-3.14-.13a20.62,20.62,0,0,0-.53,4.32Z" transform="translate(-137.24 -31.52)"/><path class="cls-14" d="M460.1,72.59l-.26,4.71s.66,1.44,2.49.13l-.65-5S460.76,71.28,460.1,72.59Z" transform="translate(-137.24 -31.52)"/><g class="cls-15"><path class="cls-16" d="M454,145.72v4.95c0,6-3,9.37-8.73,9.37s-8.74-3.4-8.74-9.37V131.29c0-6,3-9.38,8.74-9.38s8.73,3.41,8.73,9.38v3.62h-5.54v-4c0-2.66-1.17-3.67-3-3.67s-3,1-3,3.67V151c0,2.67,1.17,3.63,3,3.63s3-1,3-3.63v-5.32Z" transform="translate(-137.24 -31.52)"/><path class="cls-16" d="M470.32,152.75h.11l4.42-30.41h5.37l-5.75,37.28h-8.73L460,122.34h5.91Z" transform="translate(-137.24 -31.52)"/></g><rect class="cls-6" x="357.04" y="95.27" width="27.68" height="5.85"/><rect class="cls-6" x="357.04" y="107.96" width="38.84" height="2.79"/><rect class="cls-6" x="357.04" y="114.55" width="38.84" height="2.79"/><rect class="cls-6" x="357.04" y="121.13" width="38.84" height="2.79"/><rect class="cls-4" x="67.52" y="18.21" width="175.14" height="194.76" rx="10"/><rect class="cls-5" x="73.15" y="24.48" width="163.88" height="182.24" rx="10"/><rect class="cls-7" x="84.34" y="36.9" width="66.32" height="66.32" rx="5"/><path class="cls-11" d="M227.53,134.73c0-6.42,12.15-18.68,27.14-18.68s27.15,12.31,27.15,18.61Z" transform="translate(-137.24 -31.52)"/><polygon class="cls-5" points="112.36 84.77 109.21 92.71 117.5 87.1 112.36 84.77"/><polygon class="cls-5" points="123.1 84.77 117.5 87.1 125.2 92.83 123.1 84.77"/><path class="cls-3" d="M274.82,104.37c-.24-3-4.44-14-8.64-21-3.61-6-9.94-5.49-11.68-5.22-1.74-.27-8.07-.79-11.68,5.22-4.2,7-8.4,18-8.64,21s.24,10.45,20.32,6.12C274.58,114.82,275.05,107.4,274.82,104.37Z" transform="translate(-137.24 -31.52)"/><polygon class="cls-12" points="114.46 75.89 112.36 84.77 117.5 87.1 123.1 84.77 120.53 75.43 114.46 75.89"/><path class="cls-13" d="M245.39,92.93s-2.8,15.65,9.11,15.88,9.81-15.18,9.81-15.18L262.44,88l-5.37-5.61-4.91.47Z" transform="translate(-137.24 -31.52)"/><path class="cls-3" d="M245.39,92.93s7.71,1.64,9.34-6.77c0,0,.7,7.47,9.34,6.31l.94-3-4.67-6.77-4-2.34-7.24.47L244.92,91.3Z" transform="translate(-137.24 -31.52)"/><path class="cls-14" d="M254,95l-.82,5.73a2.27,2.27,0,0,0,2.81,0l-.82-6S254.38,94.1,254,95Z" transform="translate(-137.24 -31.52)"/><rect class="cls-8" x="162.33" y="57.45" width="59.78" height="12.61" rx="4.79"/><rect class="cls-6" x="162.33" y="81.27" width="47.7" height="2.93"/><rect class="cls-6" x="162.33" y="95.28" width="30.54" height="2.93"/><rect class="cls-6" x="162.33" y="88.27" width="59.78" height="2.93"/><rect class="cls-17" x="84.34" y="126.34" width="74.96" height="5.37"/><rect class="cls-2" x="83.46" y="141.45" width="137.69" height="2.93"/><rect class="cls-2" x="83.46" y="155.46" width="128.86" height="2.93"/><rect class="cls-2" x="83.46" y="148.46" width="143.09" height="2.93"/><rect class="cls-2" x="83.46" y="182.08" width="105.12" height="2.93"/><rect class="cls-2" x="83.46" y="189.09" width="95.04" height="2.93"/><rect class="cls-17" x="84.34" y="166.97" width="74.96" height="5.37"/><rect class="cls-4" x="131.97" y="191.95" width="189.15" height="105.79" rx="10"/><rect class="cls-5" x="137.61" y="197.24" width="178.05" height="95.59" rx="10"/><rect class="cls-8" x="212.77" y="213.6" width="59.78" height="12.61" rx="4.53"/><rect class="cls-6" x="212.77" y="237.43" width="47.7" height="2.93"/><rect class="cls-6" x="212.77" y="244.43" width="69.31" height="2.93"/><rect class="cls-2" x="149.61" y="276.59" width="151.12" height="2.93"/><rect class="cls-2" x="149.61" y="283.6" width="157.04" height="2.93"/><rect class="cls-17" x="150.48" y="265.68" width="74.96" height="5.37"/><rect class="cls-7" x="149.72" y="208.77" width="50.44" height="50.44" rx="5"/><path class="cls-3" d="M313,278.9s13.41,1,13.41,0V267.26c0-2.89-.87-14.45-5.25-18.66s-8.25-1.14-8.25-1.14-3.87-3.06-8.25,1.14-5.26,15.77-5.26,18.66V278.9c0,1,13.42,0,13.42,0Z" transform="translate(-137.24 -31.52)"/><g class="cls-18"><ellipse class="cls-11" cx="174.68" cy="257.31" rx="19.86" ry="15.44"/></g><path class="cls-5" d="M319,275.71c0,.94-2.77,6.61-6.05,6.61s-5.82-5.67-5.82-6.61,2.66-1.7,5.94-1.7S319,274.77,319,275.71Z" transform="translate(-137.24 -31.52)"/><path class="cls-12" d="M317.35,275.31a6.91,6.91,0,0,1-4.51,1.4,6.35,6.35,0,0,1-4.39-1.4v-5.14h8.9Z" transform="translate(-137.24 -31.52)"/><path class="cls-13" d="M304.28,256.75s-2.2,14.45,8.62,14.71,8.46-15.06,8.46-15.5l-4-3.42-8.9-.78Z" transform="translate(-137.24 -31.52)"/><path class="cls-3" d="M303.54,255.7s-.7,2.36,3.24,2,5.4-2,5.4-2-2.42,3.5-.67,3.67,8.14-2.62,8.75-3.67c0,0-4.2,5.34,2.11,1.13v-3.32L317.73,250h-9.28Z" transform="translate(-137.24 -31.52)"/><path class="cls-12" d="M570,131.22l-.39,9.65s7.3,2.61,7.3,0c0-.78.26-9.39.52-10.7S570,131.22,570,131.22Z" transform="translate(-137.24 -31.52)"/><path class="cls-3" d="M569.93,292a16.4,16.4,0,0,1,.62,4.8c-.16,2.17,0,3.41-.93,3.56s-3,.47-3.41,0-.25-1.55-.93-1.78-.93,1.63-1.4,2.71-7.59,3.88-10.69,3.88-2.94-.62-2.79-1.71S552.11,303,554,301s9.14-8.52,9.6-9.91,5.74-.62,5.74-.62Z" transform="translate(-137.24 -31.52)"/><path class="cls-3" d="M555,201.13s2.87,25.3,3.91,35.74,2.87,15.13,3.66,27.65,1,26.52,1,26.52,2.27,1.28,5.74-.62c0,0,5-20.43,5.28-27.73s-2.08-13.56-1.56-19,5.74-29.48,6.26-35.48S577.2,192,575.9,189.39s-18,0-18,0l-3.13,1.3Z" transform="translate(-137.24 -31.52)"/><path class="cls-19" d="M555.29,182.87s-2.87,6.52-.52,7.82,9.65,3.65,15.65,2.35,7.83-2.61,9.39-5.74,6-14.61,6.26-24-3.65-19.82-4.43-21.13a8.06,8.06,0,0,0-3.91-2.87c-1.05-.26-5.48.52-6.79.52s-6.26-.78-10.69,5.22S555.29,182.87,555.29,182.87Z" transform="translate(-137.24 -31.52)"/><path class="cls-20" d="M556.27,191.38a18.37,18.37,0,0,0,16.41-9.94c5.48-10.51,5.46-16.35,4.3-20.9s-7-10.39-7-10.39l-4.25-1.66c-1.3,0-1-9.45-5.47-3.45s-5,37.83-5,37.83-2.87,6.52-.52,7.82" transform="translate(-137.24 -31.52)"/><path class="cls-13" d="M565.6,113.48s-2.61,7.17-3,9.91-1.7,7.7,5.21,8.48,9.65-1.7,9.65-1.7l2.61-3.39L583.2,123l.66-9.13-10.18-2.09Z" transform="translate(-137.24 -31.52)"/><path class="cls-3" d="M568.73,115.69s-5.22-1-4.44-4.69,7-5.48,9.39-6.52,9-.92,12.13,2.61a14.81,14.81,0,0,1,3.78,12.13c-.65,4.17-7.17,10-8.34,11.6a4.38,4.38,0,0,1-3.66,1.83c-.65-.13-2.73.26-3.13-.52a9,9,0,0,1-.26-4.7c.39-1.56,2.87-3.39,2.87-3.39s4.31,0,3.92-2.61-1.44-3-2.74-2.6A6.7,6.7,0,0,0,576,120s-1.44.65-1.57-.91-.13-2.35-1.56-2.61S569.51,116,568.73,115.69Z" transform="translate(-137.24 -31.52)"/><path class="cls-14" d="M564.29,116.22l-2.09,5.34s.13,1.44,2,.79l1.44-5.48S565.2,115.69,564.29,116.22Z" transform="translate(-137.24 -31.52)"/><path class="cls-13" d="M520.6,187.43s-2.74.39-3.79-.13-3-2.61-4.43-3-2.35,0-2.09.52,3.39,2.09,3,2.48a99.26,99.26,0,0,1-10.43,3.78c-2,.53-1.31,5.09.39,5.22s13.3-.26,18.65-5.22Z" transform="translate(-137.24 -31.52)"/><path class="cls-19" d="M562.86,142.3a43.64,43.64,0,0,0-10.7,15.13c-3.91,9.39-4.56,10.7-5.74,11.22s-13,5.22-20.21,11.48-6.92,5.48-6.79,7,.79,4.7,2.22,4.83,26.35-1.18,35-6.52,13.17-18.13,13.95-21.4,3.78-11.6.91-16.56S564.94,141.26,562.86,142.3Z" transform="translate(-137.24 -31.52)"/><path class="cls-12" d="M209.84,150.61,208.61,141h-3.85s-2.45,0-2.45.52-.53,11-.53,11l6.13-.35Z" transform="translate(-137.24 -31.52)"/><rect class="cls-3" x="128.93" y="266" width="161.12" height="2.8" transform="translate(-206.97 429.34) rotate(-86.64)"/><rect class="cls-3" x="88.58" y="262.39" width="163.36" height="2.8" transform="matrix(0.14, -0.99, 0.99, 0.14, -251.95, 364.03)"/><rect class="cls-3" x="24.2" y="293.53" width="44.58" height="2.8"/><rect class="cls-3" x="28.14" y="265.53" width="42.28" height="2.8"/><rect class="cls-3" x="31.76" y="240.47" width="40.14" height="2.8"/><rect class="cls-3" x="35.17" y="215.59" width="38.19" height="2.8"/><rect class="cls-3" x="38.15" y="194.41" width="36.46" height="2.8"/><rect class="cls-3" x="41.06" y="173.74" width="34.76" height="2.8"/><path class="cls-13" d="M260.34,150.44s4.14-1.58,5.37-3.33a12.81,12.81,0,0,1,4.73-3.68c.7-.17,1.92.18,1.4.88a17.9,17.9,0,0,1-2.45,2.1,50.38,50.38,0,0,0,6.83-.88c1.75-.52,3.5-1.05,4-.7s2.63,3.86.53,4.56-10,3.5-13.66,3.67-6.31.53-6.31.53Z" transform="translate(-137.24 -31.52)"/><path class="cls-13" d="M206.86,142.21s5.83-2.16,6.77-4c1.52-2.92,2.16-4.62.76-9.17s-3-6.48-3-7.36-6.3-1.57-6.3-1.57l-7.53,3,2.1,10.69Z" transform="translate(-137.24 -31.52)"/><path class="cls-13" d="M179.19,267.61a38.19,38.19,0,0,0-2.76,3.4,49.2,49.2,0,0,0-7.57,15.34,157.55,157.55,0,0,0-4.38,21.54l4.9,1.4s7.53-14.89,10.51-20.49,6-8.41,6.3-10.34,2.63-11,2.63-11l-2.28-1.4Z" transform="translate(-137.24 -31.52)"/><path class="cls-20" d="M179.89,288.8c3-5.61,6-8.41,6.3-10.34s2.63-11,2.63-11l-2.28-1.4-7.35,1.58a38.19,38.19,0,0,0-2.76,3.4s2.93,2.73,4.69,3.25S179.89,288.8,179.89,288.8Z" transform="translate(-137.24 -31.52)"/><path class="cls-13" d="M184.09,268.48s-.29,2.19-.43,6a115.27,115.27,0,0,0,.61,16.28c1.4,13.14,3,25.23,3,26.63s5.77.52,5.77.52,1.76-24.17,2.28-31.35c.26-3.52.52-8,.69-11.9.18-4,.28-7.43.19-8.41-.18-1.93-6.83-2.63-6.83-2.63Z" transform="translate(-137.24 -31.52)"/><path class="cls-20" d="M196,274.62c.18-4,.28-7.43.19-8.41-.18-1.93-6.83-2.63-6.83-2.63l-5.26,4.9s-.29,2.19-.43,6a24.49,24.49,0,0,0,11.47.17Z" transform="translate(-137.24 -31.52)"/><path class="cls-3" d="M164.13,306.49s-2.11,3.68-2.28,6.3-1.4,2.8-.18,3.33,4.21,1.75,4.73,1.23,1-1.76,1.58-1.4.35,1.92.35,1.92,5.43,1.75,8.41,2.63,3.67.7,3.85,0-1.75-.88-3.5-2.63a96.4,96.4,0,0,1-7.36-9.46C169.56,307.89,165.53,308.06,164.13,306.49Z" transform="translate(-137.24 -31.52)"/><path class="cls-3" d="M186.89,316.3a11.34,11.34,0,0,0-.52,5.6c.52,3-.7,4.2.7,4.38s4.73.52,5.08,0,.17-2.28.87-1.93.18,2.1,1.06,2.1,11,0,12.78-.52.7-1.75-.52-2.1-4.21-.53-6.48-1.93-5.43-4.73-6.66-5.25C193.2,316.65,187.77,317.17,186.89,316.3Z" transform="translate(-137.24 -31.52)"/><path class="cls-3" d="M180.47,197.78s-1.15,2.05-2.58,5.13c-2.37,5.13-5.5,13.13-5.36,19.39.24,10,4,46.47,4,46.47s14.25,4.67,22.42,1.17c0,0,6.54-47.64,7-57a67.68,67.68,0,0,0-.94-15.88Z" transform="translate(-137.24 -31.52)"/><path class="cls-19" d="M180.71,162.05c-.31.68-3,6.78-2.81,17.52s-2.1,17.75,1.17,20.32,22.19,3.5,26.86.7,10.51-14.72,11.21-22.19a73.85,73.85,0,0,0,.46-10.74s11.21,5.84,19.85,4.9,21.49-12.84,24.52-19.38a11.6,11.6,0,0,0-.7-3.27c-.47-.7-4.2-1.63-11.67-.23s-11.45,4.67-16.12,4.43-14.24-5.6-19.38-6.07a59.74,59.74,0,0,0-16.81,1.4C191.92,150.61,184.91,153,180.71,162.05Z" transform="translate(-137.24 -31.52)"/><path class="cls-20" d="M179.07,199.89c3.27,2.56,22.19,3.5,26.86.7s10.51-14.72,11.21-22.19a73.85,73.85,0,0,0,.46-10.74l-3.5-1.87a49.37,49.37,0,0,1-4.44,18.68c-4.43,9.58-7.7,12.85-14.94,13.55S179.07,199.89,179.07,199.89Z" transform="translate(-137.24 -31.52)"/><path class="cls-3" d="M206.86,125.39s.23-2.8,1.4-2.57,4,.7,4.67-.23,2.34-3.27-.93-5.14-4-4.67-11.21-5.14-13.31.94-15.65,11.68-1.86,21.48-4,26.62-4.2,10.51-2.8,11.68,5.84,3.5,8.88,3.73,4.67.94,5.37-.7A7.94,7.94,0,0,1,194,163s-.24,3.73.7,4.2,8.4,1.17,12.14-1.17,3-3.73,2.8-7.94-1.63-7.7-2.33-12.14.47-9.57-1.17-11.67a19,19,0,0,0-2.8-3s-4.44-1.4-3-3.27,4.21.23,4.21.23A3.15,3.15,0,0,0,206.86,125.39Z" transform="translate(-137.24 -31.52)"/><path class="cls-14" d="M213.57,126l2.09,3.91s-.13,1-2,.57l-1.43-4A1,1,0,0,1,213.57,126Z" transform="translate(-137.24 -31.52)"/><path class="cls-4" d="M491,366.73l-69.41-3.25c-3-.13-7-3.1-4-8.2l18.93-28.91,65.86,3.08a2.88,2.88,0,0,1,2.63,3.66l-8.43,29.62A5.54,5.54,0,0,1,491,366.73Z" transform="translate(-137.24 -31.52)"/><path class="cls-4" d="M502.94,329.48l-67.15-3.15,2.14-45.69a4.08,4.08,0,0,1,4.27-3.89l62.06,2.91c2.26.11,4,1.95,3.85,5.24l-2,41.65A3.07,3.07,0,0,1,502.94,329.48Z" transform="translate(-137.24 -31.52)"/><path class="cls-6" d="M436.86,278.06H502.1a2.53,2.53,0,0,1,2.53,2.53v47.3a0,0,0,0,1,0,0h-70.3a0,0,0,0,1,0,0v-47.3A2.53,2.53,0,0,1,436.86,278.06Z" transform="translate(-122.55 -53.15) rotate(2.68)"/><rect class="cls-19" x="449.42" y="272.81" width="39.51" height="61.59" transform="translate(6.72 726.55) rotate(-87.32)"/><path class="cls-5" d="M440.05,283.22l60,2.81-1.78,38-60-2.81,1.78-38m-1.43-1.57-1.92,41,63,2.95,1.92-41-63-3Z" transform="translate(-137.24 -31.52)"/><path class="cls-5" d="M466,280.28a.65.65,0,0,1-1.29-.06.65.65,0,1,1,1.29.06Z" transform="translate(-137.24 -31.52)"/><path class="cls-5" d="M475.35,281.08l-7.3-.34a.43.43,0,0,1,0-.86l7.3.34a.44.44,0,0,1,.41.45A.43.43,0,0,1,475.35,281.08Z" transform="translate(-137.24 -31.52)"/><g class="cls-21"><rect x="443.1" y="290.44" width="36.82" height="5.46" transform="translate(-123.02 -52.79) rotate(2.68)"/><rect x="442.67" y="298.57" width="36.82" height="7.65" transform="translate(-122.58 -52.76) rotate(2.68)"/><rect x="442.13" y="309.89" width="14.99" height="7.65" transform="translate(-122.07 -52.21) rotate(2.68)"/><rect x="459.5" y="310.81" width="19.42" height="7.65" transform="translate(-122 -53.12) rotate(2.68)"/><rect x="484.6" y="291.75" width="9.65" height="9.65" transform="translate(-122.83 -54.09) rotate(2.68)"/><rect x="483.89" y="303.94" width="9.65" height="15.42" transform="translate(-122.12 -54.04) rotate(2.68)"/></g><path class="cls-22" d="M489.32,363l-69.41-3.25a2.89,2.89,0,0,1-2.31-4.42l15.6-29.07,70.22,3.29L494.91,359A5.54,5.54,0,0,1,489.32,363Z" transform="translate(-137.24 -31.52)"/><polygon class="cls-6" points="353.21 321.95 288.9 318.94 299.53 297.63 360.14 300.47 353.21 321.95"/><polygon class="cls-5" points="348.43 319.91 294.84 317.4 303.69 299.64 354.21 302.01 348.43 319.91"/><path class="cls-5" d="M464.81,363.8l-15.21-.71a.65.65,0,0,1-.61-.66h0a.65.65,0,0,1,.67-.61l15.2.71a.65.65,0,0,1,.61.67h0A.63.63,0,0,1,464.81,363.8Z" transform="translate(-137.24 -31.52)"/><polygon class="cls-4" points="329.28 328.04 312.05 327.23 314.9 321.52 331.14 322.28 329.28 328.04"/><ellipse class="cls-23" cx="125.67" cy="303.27" rx="38.53" ry="13.04"/><path class="cls-24" d="M301.44,334.78c0,7.2-17.25,13-38.53,13s-38.53-5.84-38.53-13v14c0,7.21,17.25,13,38.53,13s38.53-5.83,38.53-13Z" transform="translate(-137.24 -31.52)"/><path class="cls-25" d="M262.91,347.82c16.16,0,30-2.79,35.71-6.75a6.07,6.07,0,0,0,.7-2.75c0-7.71-16.07-14-35.89-14s-35.88,6.26-35.88,14a6.41,6.41,0,0,0,1.33,3.76C235.35,345.5,248.16,347.82,262.91,347.82Z" transform="translate(-137.24 -31.52)"/><path class="cls-26" d="M262.91,347.82c13.52,0,25.41-2.36,32.29-5.93a5,5,0,0,0,.46-2c0-6.83-14.43-12.37-32.23-12.37s-32.22,5.54-32.22,12.37a5.25,5.25,0,0,0,.84,2.72C239.08,345.77,250.28,347.82,262.91,347.82Z" transform="translate(-137.24 -31.52)"/><path class="cls-6" d="M339,339.3H301.41l-.11,0-.1,0H301v0c-1.61.35-2.86,3.06-2.86,6.4s1.25,6.05,2.86,6.39h0a1.4,1.4,0,0,0,.28.06,1.36,1.36,0,0,0,.29-.06H339Z" transform="translate(-137.24 -31.52)"/><path class="cls-8" d="M362.28,345.74c0-3.93-1.57-7.11-3.51-7.13v-.13H339v.15c-1.9.11-3.43,3.24-3.43,7.11s1.53,7,3.43,7.11V353h19.73v-.1C360.71,352.85,362.28,349.67,362.28,345.74Z" transform="translate(-137.24 -31.52)"/><path class="cls-27" d="M235.44,343.92c7,2.41,16.71,3.9,27.47,3.9,11.61,0,22-1.74,29.07-4.49a4.71,4.71,0,0,0,1.23-3c0-5.88-13.33-10.65-29.78-10.65s-29.77,4.77-29.77,10.65A5.16,5.16,0,0,0,235.44,343.92Z" transform="translate(-137.24 -31.52)"/><path class="cls-28" d="M273.85,333.33c0,3.57-9,2.37-15.57,2.37s-14,.83-14-2.73,8.1-6.54,14.72-6.54S273.85,329.77,273.85,333.33Z" transform="translate(-137.24 -31.52)"/><path class="cls-3" d="M362.28,345.74c0,3.93-1.58,7.13-3.53,7.13s-3.52-3.2-3.52-7.13,1.58-7.13,3.52-7.13S362.28,341.8,362.28,345.74Z" transform="translate(-137.24 -31.52)"/></svg>